<svg width="2167" height="66" viewBox="0 0 2167 66" fill="none" xmlns="http://www.w3.org/2000/svg">
<rect x="0.991699" y="34.0273" width="45.7149" height="30.565" rx="9" fill="#DAD9D3" fill-opacity="0.46" stroke="black" stroke-width="2"/>
<rect x="76.5698" y="34.0273" width="45.7149" height="30.565" rx="9" fill="#DAD9D3" fill-opacity="0.46" stroke="black" stroke-width="2"/>
<rect x="151.57" y="34.0273" width="45.7149" height="30.565" rx="9" fill="#DAD9D3" fill-opacity="0.46" stroke="black" stroke-width="2"/>
<rect x="226.57" y="34.0273" width="45.7149" height="30.565" rx="9" fill="#DAD9D3" fill-opacity="0.46" stroke="black" stroke-width="2"/>
<rect x="301.57" y="34.0273" width="45.7149" height="30.565" rx="9" fill="#DAD9D3" fill-opacity="0.46" stroke="black" stroke-width="2"/>
<rect x="376.57" y="34.0273" width="45.7149" height="30.565" rx="9" fill="#DAD9D3" fill-opacity="0.46" stroke="black" stroke-width="2"/>
<rect x="451.57" y="34.0273" width="45.7149" height="30.565" rx="9" fill="#DAD9D3" fill-opacity="0.46" stroke="black" stroke-width="2"/>
<rect x="526.57" y="34.0273" width="45.7149" height="30.565" rx="9" fill="#DAD9D3" fill-opacity="0.46" stroke="black" stroke-width="2"/>
<rect x="601.57" y="34.0273" width="45.7149" height="30.565" rx="9" fill="#DAD9D3" fill-opacity="0.46" stroke="black" stroke-width="2"/>
<rect x="676.57" y="34.0273" width="45.7149" height="30.565" rx="9" fill="#DAD9D3" fill-opacity="0.46" stroke="black" stroke-width="2"/>
<rect x="751.57" y="34.0273" width="45.7149" height="30.565" rx="9" fill="#DAD9D3" fill-opacity="0.46" stroke="black" stroke-width="2"/>
<rect x="1428.28" y="34.0273" width="45.7149" height="30.565" rx="9" fill="#DAD9D3" fill-opacity="0.46" stroke="black" stroke-width="2"/>
<rect x="826.57" y="34.0273" width="45.7149" height="30.565" rx="9" fill="#DAD9D3" fill-opacity="0.46" stroke="black" stroke-width="2"/>
<rect x="1503.28" y="34.0273" width="45.7149" height="30.565" rx="9" fill="#DAD9D3" fill-opacity="0.46" stroke="black" stroke-width="2"/>
<rect x="901.57" y="34.0273" width="45.7149" height="30.565" rx="9" fill="#DAD9D3" fill-opacity="0.46" stroke="black" stroke-width="2"/>
<rect x="1578.28" y="34.0273" width="45.7149" height="30.565" rx="9" fill="#DAD9D3" fill-opacity="0.46" stroke="black" stroke-width="2"/>
<rect x="976.57" y="34.0273" width="45.7149" height="30.565" rx="9" fill="#DAD9D3" fill-opacity="0.46" stroke="black" stroke-width="2"/>
<rect x="1653.28" y="34.0273" width="45.7149" height="30.565" rx="9" fill="#DAD9D3" fill-opacity="0.46" stroke="black" stroke-width="2"/>
<rect x="1051.57" y="34.0273" width="45.7149" height="30.565" rx="9" fill="#DAD9D3" fill-opacity="0.46" stroke="black" stroke-width="2"/>
<rect x="1728.28" y="34.0273" width="45.7149" height="30.565" rx="9" fill="#DAD9D3" fill-opacity="0.46" stroke="black" stroke-width="2"/>
<rect x="1126.57" y="34.0273" width="45.7149" height="30.565" rx="9" fill="#DAD9D3" fill-opacity="0.46" stroke="black" stroke-width="2"/>
<rect x="1803.28" y="34.0273" width="45.7149" height="30.565" rx="9" fill="#DAD9D3" fill-opacity="0.46" stroke="black" stroke-width="2"/>
<rect x="1201.57" y="34.0273" width="45.7149" height="30.565" rx="9" fill="#DAD9D3" fill-opacity="0.46" stroke="black" stroke-width="2"/>
<rect x="1878.28" y="34.0273" width="45.7149" height="30.565" rx="9" fill="#DAD9D3" fill-opacity="0.46" stroke="black" stroke-width="2"/>
<rect x="1276.57" y="34.0273" width="45.7149" height="30.565" rx="9" fill="#DAD9D3" fill-opacity="0.46" stroke="black" stroke-width="2"/>
<rect x="1953.28" y="34.0273" width="45.7149" height="30.565" rx="9" fill="#DAD9D3" fill-opacity="0.46" stroke="black" stroke-width="2"/>
<rect x="1351.57" y="34.0273" width="45.7149" height="30.565" rx="9" fill="#DAD9D3" fill-opacity="0.46" stroke="black" stroke-width="2"/>
<rect x="2028.28" y="34.0273" width="45.7149" height="30.565" rx="9" fill="#DAD9D3" fill-opacity="0.46" stroke="black" stroke-width="2"/>
<rect x="2104.98" y="34.0273" width="45.7149" height="30.565" rx="9" fill="#DAD9D3" fill-opacity="0.46" stroke="black" stroke-width="2"/>
<rect x="114.07" y="26.8604" width="45.7149" height="30.565" rx="9" fill="#DAD9D3" fill-opacity="0.46" stroke="black" stroke-width="2"/>
<rect x="38.4917" y="26.8604" width="45.7149" height="30.565" rx="9" fill="#DAD9D3" fill-opacity="0.46" stroke="black" stroke-width="2"/>
<rect x="189.07" y="26.8604" width="45.7149" height="30.565" rx="9" fill="#DAD9D3" fill-opacity="0.46" stroke="black" stroke-width="2"/>
<rect x="264.07" y="26.8604" width="45.7149" height="30.565" rx="9" fill="#DAD9D3" fill-opacity="0.46" stroke="black" stroke-width="2"/>
<rect x="339.07" y="26.8604" width="45.7149" height="30.565" rx="9" fill="#DAD9D3" fill-opacity="0.46" stroke="black" stroke-width="2"/>
<rect x="414.07" y="26.8604" width="45.7149" height="30.565" rx="9" fill="#DAD9D3" fill-opacity="0.46" stroke="black" stroke-width="2"/>
<rect x="489.07" y="26.8604" width="45.7149" height="30.565" rx="9" fill="#DAD9D3" fill-opacity="0.46" stroke="black" stroke-width="2"/>
<rect x="564.07" y="26.8604" width="45.7149" height="30.565" rx="9" fill="#DAD9D3" fill-opacity="0.46" stroke="black" stroke-width="2"/>
<rect x="639.07" y="26.8604" width="45.7149" height="30.565" rx="9" fill="#DAD9D3" fill-opacity="0.46" stroke="black" stroke-width="2"/>
<rect x="714.07" y="26.8604" width="45.7149" height="30.565" rx="9" fill="#DAD9D3" fill-opacity="0.46" stroke="black" stroke-width="2"/>
<rect x="789.07" y="26.8604" width="45.7149" height="30.565" rx="9" fill="#DAD9D3" fill-opacity="0.46" stroke="black" stroke-width="2"/>
<rect x="1465.78" y="26.8604" width="45.7149" height="30.565" rx="9" fill="#DAD9D3" fill-opacity="0.46" stroke="black" stroke-width="2"/>
<rect x="864.07" y="26.8604" width="45.7149" height="30.565" rx="9" fill="#DAD9D3" fill-opacity="0.46" stroke="black" stroke-width="2"/>
<rect x="1540.78" y="26.8604" width="45.7149" height="30.565" rx="9" fill="#DAD9D3" fill-opacity="0.46" stroke="black" stroke-width="2"/>
<rect x="939.07" y="26.8604" width="45.7149" height="30.565" rx="9" fill="#DAD9D3" fill-opacity="0.46" stroke="black" stroke-width="2"/>
<rect x="1615.78" y="26.8604" width="45.7149" height="30.565" rx="9" fill="#DAD9D3" fill-opacity="0.46" stroke="black" stroke-width="2"/>
<rect x="1014.07" y="26.8604" width="45.7149" height="30.565" rx="9" fill="#DAD9D3" fill-opacity="0.46" stroke="black" stroke-width="2"/>
<rect x="1690.78" y="26.8604" width="45.7149" height="30.565" rx="9" fill="#DAD9D3" fill-opacity="0.46" stroke="black" stroke-width="2"/>
<rect x="1089.07" y="26.8604" width="45.7149" height="30.565" rx="9" fill="#DAD9D3" fill-opacity="0.46" stroke="black" stroke-width="2"/>
<rect x="1765.78" y="26.8604" width="45.7149" height="30.565" rx="9" fill="#DAD9D3" fill-opacity="0.46" stroke="black" stroke-width="2"/>
<rect x="1164.07" y="26.8604" width="45.7149" height="30.565" rx="9" fill="#DAD9D3" fill-opacity="0.46" stroke="black" stroke-width="2"/>
<rect x="1840.78" y="26.8604" width="45.7149" height="30.565" rx="9" fill="#DAD9D3" fill-opacity="0.46" stroke="black" stroke-width="2"/>
<rect x="1239.07" y="26.8604" width="45.7149" height="30.565" rx="9" fill="#DAD9D3" fill-opacity="0.46" stroke="black" stroke-width="2"/>
<rect x="1915.78" y="26.8604" width="45.7149" height="30.565" rx="9" fill="#DAD9D3" fill-opacity="0.46" stroke="black" stroke-width="2"/>
<rect x="1314.07" y="26.8604" width="45.7149" height="30.565" rx="9" fill="#DAD9D3" fill-opacity="0.46" stroke="black" stroke-width="2"/>
<rect x="1990.78" y="26.8604" width="45.7149" height="30.565" rx="9" fill="#DAD9D3" fill-opacity="0.46" stroke="black" stroke-width="2"/>
<rect x="1390.78" y="26.8604" width="45.7149" height="30.565" rx="9" fill="#DAD9D3" fill-opacity="0.46" stroke="black" stroke-width="2"/>
<rect x="2067.48" y="26.8604" width="45.7149" height="30.565" rx="9" fill="#DAD9D3" fill-opacity="0.46" stroke="black" stroke-width="2"/>
<rect x="16.0083" y="23.9204" width="45.7149" height="30.565" rx="9" fill="#EDECEA" fill-opacity="0.84" stroke="black" stroke-width="2"/>
<rect x="91.5862" y="23.9204" width="45.7149" height="30.565" rx="9" fill="#EDECEA" fill-opacity="0.84" stroke="black" stroke-width="2"/>
<rect x="166.586" y="23.9204" width="45.7149" height="30.565" rx="9" fill="#EDECEA" fill-opacity="0.84" stroke="black" stroke-width="2"/>
<rect x="241.586" y="23.9204" width="45.7149" height="30.565" rx="9" fill="#EDECEA" fill-opacity="0.84" stroke="black" stroke-width="2"/>
<rect x="316.586" y="23.9204" width="45.7149" height="30.565" rx="9" fill="#EDECEA" fill-opacity="0.84" stroke="black" stroke-width="2"/>
<rect x="391.586" y="23.9204" width="45.7149" height="30.565" rx="9" fill="#EDECEA" fill-opacity="0.84" stroke="black" stroke-width="2"/>
<rect x="466.586" y="23.9204" width="45.7149" height="30.565" rx="9" fill="#EDECEA" fill-opacity="0.84" stroke="black" stroke-width="2"/>
<rect x="541.586" y="23.9204" width="45.7149" height="30.565" rx="9" fill="#EDECEA" fill-opacity="0.84" stroke="black" stroke-width="2"/>
<rect x="616.586" y="23.9204" width="45.7149" height="30.565" rx="9" fill="#EDECEA" fill-opacity="0.84" stroke="black" stroke-width="2"/>
<rect x="691.586" y="23.9204" width="45.7149" height="30.565" rx="9" fill="#EDECEA" fill-opacity="0.84" stroke="black" stroke-width="2"/>
<rect x="766.586" y="23.9204" width="45.7149" height="30.565" rx="9" fill="#EDECEA" fill-opacity="0.84" stroke="black" stroke-width="2"/>
<rect x="1443.29" y="23.9204" width="45.7149" height="30.565" rx="9" fill="#EDECEA" fill-opacity="0.84" stroke="black" stroke-width="2"/>
<rect x="841.586" y="23.9204" width="45.7149" height="30.565" rx="9" fill="#EDECEA" fill-opacity="0.84" stroke="black" stroke-width="2"/>
<rect x="1518.29" y="23.9204" width="45.7149" height="30.565" rx="9" fill="#EDECEA" fill-opacity="0.84" stroke="black" stroke-width="2"/>
<rect x="916.586" y="23.9204" width="45.7149" height="30.565" rx="9" fill="#EDECEA" fill-opacity="0.84" stroke="black" stroke-width="2"/>
<rect x="1593.29" y="23.9204" width="45.7149" height="30.565" rx="9" fill="#EDECEA" fill-opacity="0.84" stroke="black" stroke-width="2"/>
<rect x="991.586" y="23.9204" width="45.7149" height="30.565" rx="9" fill="#EDECEA" fill-opacity="0.84" stroke="black" stroke-width="2"/>
<rect x="1668.29" y="23.9204" width="45.7149" height="30.565" rx="9" fill="#EDECEA" fill-opacity="0.84" stroke="black" stroke-width="2"/>
<rect x="1066.59" y="23.9204" width="45.7149" height="30.565" rx="9" fill="#EDECEA" fill-opacity="0.84" stroke="black" stroke-width="2"/>
<rect x="1743.29" y="23.9204" width="45.7149" height="30.565" rx="9" fill="#EDECEA" fill-opacity="0.84" stroke="black" stroke-width="2"/>
<rect x="1141.59" y="23.9204" width="45.7149" height="30.565" rx="9" fill="#EDECEA" fill-opacity="0.84" stroke="black" stroke-width="2"/>
<rect x="1818.29" y="23.9204" width="45.7149" height="30.565" rx="9" fill="#EDECEA" fill-opacity="0.84" stroke="black" stroke-width="2"/>
<rect x="1216.59" y="23.9204" width="45.7149" height="30.565" rx="9" fill="#EDECEA" fill-opacity="0.84" stroke="black" stroke-width="2"/>
<rect x="1893.29" y="23.9204" width="45.7149" height="30.565" rx="9" fill="#EDECEA" fill-opacity="0.84" stroke="black" stroke-width="2"/>
<rect x="1291.59" y="23.9204" width="45.7149" height="30.565" rx="9" fill="#EDECEA" fill-opacity="0.84" stroke="black" stroke-width="2"/>
<rect x="1968.29" y="23.9204" width="45.7149" height="30.565" rx="9" fill="#EDECEA" fill-opacity="0.84" stroke="black" stroke-width="2"/>
<rect x="1366.59" y="23.9204" width="45.7149" height="30.565" rx="9" fill="#EDECEA" fill-opacity="0.84" stroke="black" stroke-width="2"/>
<rect x="2043.29" y="23.9204" width="45.7149" height="30.565" rx="9" fill="#EDECEA" fill-opacity="0.84" stroke="black" stroke-width="2"/>
<rect x="2120" y="23.9204" width="45.7149" height="30.565" rx="9" fill="#EDECEA" fill-opacity="0.84" stroke="black" stroke-width="2"/>
<rect x="129.086" y="16.7534" width="45.7149" height="30.565" rx="9" fill="#EDECEA" fill-opacity="0.84" stroke="black" stroke-width="2"/>
<rect x="53.5083" y="16.7534" width="45.7149" height="30.565" rx="9" fill="#EDECEA" fill-opacity="0.84" stroke="black" stroke-width="2"/>
<rect x="204.086" y="16.7534" width="45.7149" height="30.565" rx="9" fill="#EDECEA" fill-opacity="0.84" stroke="black" stroke-width="2"/>
<rect x="279.086" y="16.7534" width="45.7149" height="30.565" rx="9" fill="#EDECEA" fill-opacity="0.84" stroke="black" stroke-width="2"/>
<rect x="354.086" y="16.7534" width="45.7149" height="30.565" rx="9" fill="#EDECEA" fill-opacity="0.84" stroke="black" stroke-width="2"/>
<rect x="429.086" y="16.7534" width="45.7149" height="30.565" rx="9" fill="#EDECEA" fill-opacity="0.84" stroke="black" stroke-width="2"/>
<rect x="504.086" y="16.7534" width="45.7149" height="30.565" rx="9" fill="#EDECEA" fill-opacity="0.84" stroke="black" stroke-width="2"/>
<rect x="579.086" y="16.7534" width="45.7149" height="30.565" rx="9" fill="#EDECEA" fill-opacity="0.84" stroke="black" stroke-width="2"/>
<rect x="654.086" y="16.7534" width="45.7149" height="30.565" rx="9" fill="#EDECEA" fill-opacity="0.84" stroke="black" stroke-width="2"/>
<rect x="729.086" y="16.7534" width="45.7149" height="30.565" rx="9" fill="#EDECEA" fill-opacity="0.84" stroke="black" stroke-width="2"/>
<rect x="804.086" y="16.7534" width="45.7149" height="30.565" rx="9" fill="#EDECEA" fill-opacity="0.84" stroke="black" stroke-width="2"/>
<rect x="1480.79" y="16.7534" width="45.7149" height="30.565" rx="9" fill="#EDECEA" fill-opacity="0.84" stroke="black" stroke-width="2"/>
<rect x="879.086" y="16.7534" width="45.7149" height="30.565" rx="9" fill="#EDECEA" fill-opacity="0.84" stroke="black" stroke-width="2"/>
<rect x="1555.79" y="16.7534" width="45.7149" height="30.565" rx="9" fill="#EDECEA" fill-opacity="0.84" stroke="black" stroke-width="2"/>
<rect x="954.086" y="16.7534" width="45.7149" height="30.565" rx="9" fill="#EDECEA" fill-opacity="0.84" stroke="black" stroke-width="2"/>
<rect x="1630.79" y="16.7534" width="45.7149" height="30.565" rx="9" fill="#EDECEA" fill-opacity="0.84" stroke="black" stroke-width="2"/>
<rect x="1029.09" y="16.7534" width="45.7149" height="30.565" rx="9" fill="#EDECEA" fill-opacity="0.84" stroke="black" stroke-width="2"/>
<rect x="1705.79" y="16.7534" width="45.7149" height="30.565" rx="9" fill="#EDECEA" fill-opacity="0.84" stroke="black" stroke-width="2"/>
<rect x="1104.09" y="16.7534" width="45.7149" height="30.565" rx="9" fill="#EDECEA" fill-opacity="0.84" stroke="black" stroke-width="2"/>
<rect x="1780.79" y="16.7534" width="45.7149" height="30.565" rx="9" fill="#EDECEA" fill-opacity="0.84" stroke="black" stroke-width="2"/>
<rect x="1179.09" y="16.7534" width="45.7149" height="30.565" rx="9" fill="#EDECEA" fill-opacity="0.84" stroke="black" stroke-width="2"/>
<rect x="1855.79" y="16.7534" width="45.7149" height="30.565" rx="9" fill="#EDECEA" fill-opacity="0.84" stroke="black" stroke-width="2"/>
<rect x="1254.09" y="16.7534" width="45.7149" height="30.565" rx="9" fill="#EDECEA" fill-opacity="0.84" stroke="black" stroke-width="2"/>
<rect x="1930.79" y="16.7534" width="45.7149" height="30.565" rx="9" fill="#EDECEA" fill-opacity="0.84" stroke="black" stroke-width="2"/>
<rect x="1329.09" y="16.7534" width="45.7149" height="30.565" rx="9" fill="#EDECEA" fill-opacity="0.84" stroke="black" stroke-width="2"/>
<rect x="2005.79" y="16.7534" width="45.7149" height="30.565" rx="9" fill="#EDECEA" fill-opacity="0.84" stroke="black" stroke-width="2"/>
<rect x="1405.79" y="16.7534" width="45.7149" height="30.565" rx="9" fill="#EDECEA" fill-opacity="0.84" stroke="black" stroke-width="2"/>
<rect x="2082.5" y="16.7534" width="45.7149" height="30.565" rx="9" fill="#EDECEA" fill-opacity="0.84" stroke="black" stroke-width="2"/>
<rect x="10.2368" y="8.71045" width="45.7149" height="30.565" rx="9" fill="white" stroke="black" stroke-width="2"/>
<rect x="85.8147" y="8.71045" width="45.7149" height="30.565" rx="9" fill="white" stroke="black" stroke-width="2"/>
<rect x="160.815" y="8.71045" width="45.7149" height="30.565" rx="9" fill="white" stroke="black" stroke-width="2"/>
<rect x="235.815" y="8.71045" width="45.7149" height="30.565" rx="9" fill="white" stroke="black" stroke-width="2"/>
<rect x="310.815" y="8.71045" width="45.7149" height="30.565" rx="9" fill="white" stroke="black" stroke-width="2"/>
<rect x="385.815" y="8.71045" width="45.7149" height="30.565" rx="9" fill="white" stroke="black" stroke-width="2"/>
<rect x="460.815" y="8.71045" width="45.7149" height="30.565" rx="9" fill="white" stroke="black" stroke-width="2"/>
<rect x="535.815" y="8.71045" width="45.7149" height="30.565" rx="9" fill="white" stroke="black" stroke-width="2"/>
<rect x="610.815" y="8.71045" width="45.7149" height="30.565" rx="9" fill="white" stroke="black" stroke-width="2"/>
<rect x="685.815" y="8.71045" width="45.7149" height="30.565" rx="9" fill="white" stroke="black" stroke-width="2"/>
<rect x="760.815" y="8.71045" width="45.7149" height="30.565" rx="9" fill="white" stroke="black" stroke-width="2"/>
<rect x="1437.52" y="8.71045" width="45.7149" height="30.565" rx="9" fill="white" stroke="black" stroke-width="2"/>
<rect x="835.815" y="8.71045" width="45.7149" height="30.565" rx="9" fill="white" stroke="black" stroke-width="2"/>
<rect x="1512.52" y="8.71045" width="45.7149" height="30.565" rx="9" fill="white" stroke="black" stroke-width="2"/>
<rect x="910.815" y="8.71045" width="45.7149" height="30.565" rx="9" fill="white" stroke="black" stroke-width="2"/>
<rect x="1587.52" y="8.71045" width="45.7149" height="30.565" rx="9" fill="white" stroke="black" stroke-width="2"/>
<rect x="985.815" y="8.71045" width="45.7149" height="30.565" rx="9" fill="white" stroke="black" stroke-width="2"/>
<rect x="1662.52" y="8.71045" width="45.7149" height="30.565" rx="9" fill="white" stroke="black" stroke-width="2"/>
<rect x="1060.81" y="8.71045" width="45.7149" height="30.565" rx="9" fill="white" stroke="black" stroke-width="2"/>
<rect x="1737.52" y="8.71045" width="45.7149" height="30.565" rx="9" fill="white" stroke="black" stroke-width="2"/>
<rect x="1135.81" y="8.71045" width="45.7149" height="30.565" rx="9" fill="white" stroke="black" stroke-width="2"/>
<rect x="1812.52" y="8.71045" width="45.7149" height="30.565" rx="9" fill="white" stroke="black" stroke-width="2"/>
<rect x="1210.81" y="8.71045" width="45.7149" height="30.565" rx="9" fill="white" stroke="black" stroke-width="2"/>
<rect x="1887.52" y="8.71045" width="45.7149" height="30.565" rx="9" fill="white" stroke="black" stroke-width="2"/>
<rect x="1285.81" y="8.71045" width="45.7149" height="30.565" rx="9" fill="white" stroke="black" stroke-width="2"/>
<rect x="1962.52" y="8.71045" width="45.7149" height="30.565" rx="9" fill="white" stroke="black" stroke-width="2"/>
<rect x="1360.81" y="8.71045" width="45.7149" height="30.565" rx="9" fill="white" stroke="black" stroke-width="2"/>
<rect x="2037.52" y="8.71045" width="45.7149" height="30.565" rx="9" fill="white" stroke="black" stroke-width="2"/>
<rect x="2114.23" y="8.71045" width="45.7149" height="30.565" rx="9" fill="white" stroke="black" stroke-width="2"/>
<rect x="123.315" y="1.54346" width="45.7149" height="30.565" rx="9" fill="white" stroke="black" stroke-width="2"/>
<rect x="47.7368" y="1.54346" width="45.7149" height="30.565" rx="9" fill="white" stroke="black" stroke-width="2"/>
<rect x="198.315" y="1.54346" width="45.7149" height="30.565" rx="9" fill="white" stroke="black" stroke-width="2"/>
<rect x="273.315" y="1.54346" width="45.7149" height="30.565" rx="9" fill="white" stroke="black" stroke-width="2"/>
<rect x="348.315" y="1.54346" width="45.7149" height="30.565" rx="9" fill="white" stroke="black" stroke-width="2"/>
<rect x="423.315" y="1.54346" width="45.7149" height="30.565" rx="9" fill="white" stroke="black" stroke-width="2"/>
<rect x="498.315" y="1.54346" width="45.7149" height="30.565" rx="9" fill="white" stroke="black" stroke-width="2"/>
<rect x="573.315" y="1.54346" width="45.7149" height="30.565" rx="9" fill="white" stroke="black" stroke-width="2"/>
<rect x="648.315" y="1.54346" width="45.7149" height="30.565" rx="9" fill="white" stroke="black" stroke-width="2"/>
<rect x="723.315" y="1.54346" width="45.7149" height="30.565" rx="9" fill="white" stroke="black" stroke-width="2"/>
<rect x="798.315" y="1.54346" width="45.7149" height="30.565" rx="9" fill="white" stroke="black" stroke-width="2"/>
<rect x="1475.02" y="1.54346" width="45.7149" height="30.565" rx="9" fill="white" stroke="black" stroke-width="2"/>
<rect x="873.315" y="1.54346" width="45.7149" height="30.565" rx="9" fill="white" stroke="black" stroke-width="2"/>
<rect x="1550.02" y="1.54346" width="45.7149" height="30.565" rx="9" fill="white" stroke="black" stroke-width="2"/>
<rect x="948.315" y="1.54346" width="45.7149" height="30.565" rx="9" fill="white" stroke="black" stroke-width="2"/>
<rect x="1625.02" y="1.54346" width="45.7149" height="30.565" rx="9" fill="white" stroke="black" stroke-width="2"/>
<rect x="1023.31" y="1.54346" width="45.7149" height="30.565" rx="9" fill="white" stroke="black" stroke-width="2"/>
<rect x="1700.02" y="1.54346" width="45.7149" height="30.565" rx="9" fill="white" stroke="black" stroke-width="2"/>
<rect x="1098.31" y="1.54346" width="45.7149" height="30.565" rx="9" fill="white" stroke="black" stroke-width="2"/>
<rect x="1775.02" y="1.54346" width="45.7149" height="30.565" rx="9" fill="white" stroke="black" stroke-width="2"/>
<rect x="1173.31" y="1.54346" width="45.7149" height="30.565" rx="9" fill="white" stroke="black" stroke-width="2"/>
<rect x="1850.02" y="1.54346" width="45.7149" height="30.565" rx="9" fill="white" stroke="black" stroke-width="2"/>
<rect x="1248.31" y="1.54346" width="45.7149" height="30.565" rx="9" fill="white" stroke="black" stroke-width="2"/>
<rect x="1925.02" y="1.54346" width="45.7149" height="30.565" rx="9" fill="white" stroke="black" stroke-width="2"/>
<rect x="1323.31" y="1.54346" width="45.7149" height="30.565" rx="9" fill="white" stroke="black" stroke-width="2"/>
<rect x="2000.02" y="1.54346" width="45.7149" height="30.565" rx="9" fill="white" stroke="black" stroke-width="2"/>
<rect x="1400.02" y="1.54346" width="45.7149" height="30.565" rx="9" fill="white" stroke="black" stroke-width="2"/>
<rect x="2076.73" y="1.54346" width="45.7149" height="30.565" rx="9" fill="white" stroke="black" stroke-width="2"/>
</svg>
