<svg width="18" height="18" viewBox="0 0 18 18" fill="none" xmlns="http://www.w3.org/2000/svg">
<path d="M9.14528 17.9436C6.64454 17.9436 4.51858 17.068 2.76738 15.3168C1.01619 13.5657 0.140974 11.4401 0.141724 8.94008C0.141724 7.08684 0.671808 5.38555 1.73198 3.83619C2.7929 2.28533 4.29724 1.17001 6.24501 0.490244C6.4746 0.409962 6.67568 0.388953 6.84824 0.427218C7.02081 0.465484 7.16374 0.540138 7.27704 0.651182C7.39033 0.762226 7.46236 0.904782 7.49312 1.07885C7.52314 1.25367 7.4995 1.43712 7.42222 1.62919C7.27666 1.98708 7.17087 2.35135 7.10485 2.722C7.03882 3.09264 7.00618 3.47717 7.00693 3.87558C7.00693 5.88112 7.70583 7.58317 9.10363 8.98172C10.5022 10.3795 12.2042 11.0784 14.2098 11.0784C14.7335 11.0784 15.2125 11.0229 15.647 10.9119C16.0821 10.8008 16.4528 10.7108 16.7589 10.6417C16.9225 10.6117 17.0722 10.6155 17.208 10.653C17.3438 10.6905 17.4533 10.7565 17.5366 10.8511C17.6229 10.9449 17.6814 11.0604 17.7122 11.1977C17.7429 11.335 17.7253 11.4915 17.6593 11.667C17.1228 13.5053 16.0713 15.0107 14.5046 16.1834C12.938 17.3561 11.1516 17.9429 9.14528 17.9436Z" fill="#EBF5EC"/>
</svg>
