<?xml version="1.0" encoding="UTF-8"?>
<svg id="Layer_1" data-name="Layer 1" xmlns="http://www.w3.org/2000/svg" viewBox="0 0 512 512">
  <circle cx="256" cy="256" r="135.37"/>
  <rect x="230.65" y="6" width="50.71" height="75.24" rx="24.17" ry="24.17"/>
  <rect x="230.65" y="430.76" width="50.71" height="75.24" rx="24.17" ry="24.17"/>
  <rect x="18.27" y="218.38" width="50.71" height="75.24" rx="24.17" ry="24.17" transform="translate(-212.38 299.62) rotate(-90)"/>
  <rect x="443.02" y="218.38" width="50.71" height="75.24" rx="24.17" ry="24.17" transform="translate(212.38 724.38) rotate(-90)"/>
  <rect x="80.47" y="68.2" width="50.71" height="75.24" rx="24.17" ry="24.17" transform="translate(-43.83 105.83) rotate(-45)"/>
  <rect x="380.82" y="368.55" width="50.71" height="75.24" rx="24.17" ry="24.17" transform="translate(-168.24 406.18) rotate(-45)"/>
  <rect x="380.82" y="68.2" width="50.71" height="75.24" rx="24.17" ry="24.17" transform="translate(618.55 467.86) rotate(-135)"/>
  <rect x="80.47" y="368.55" width="50.71" height="75.24" rx="24.17" ry="24.17" transform="translate(-106.56 768.21) rotate(-135)"/>
</svg>