<svg width="26" height="26" viewBox="0 0 26 26" fill="none" xmlns="http://www.w3.org/2000/svg">
<path d="M12.9288 18.8035C11.372 18.8035 10.0451 18.2547 8.94814 17.157C7.85121 16.0593 7.30237 14.7324 7.30162 13.1763C7.30087 11.6202 7.84971 10.2933 8.94814 9.19558C10.0466 8.0979 11.3735 7.54905 12.9288 7.54905C14.4842 7.54905 15.8115 8.0979 16.9107 9.19558C18.0098 10.2933 18.5583 11.6202 18.5561 13.1763C18.5538 14.7324 18.005 16.0597 16.9095 17.1581C15.8141 18.2565 14.4872 18.805 12.9288 18.8035ZM1.6744 14.3017C1.35552 14.3017 1.08842 14.1937 0.873082 13.9776C0.657747 13.7615 0.549704 13.4944 0.548954 13.1763C0.548204 12.8581 0.656246 12.591 0.873082 12.375C1.08992 12.1589 1.35702 12.0508 1.6744 12.0508H3.92529C4.24416 12.0508 4.51164 12.1589 4.72773 12.375C4.94381 12.591 5.05148 12.8581 5.05073 13.1763C5.04998 13.4944 4.94194 13.7619 4.7266 13.9787C4.51127 14.1955 4.24416 14.3032 3.92529 14.3017H1.6744ZM21.9324 14.3017C21.6135 14.3017 21.3464 14.1937 21.1311 13.9776C20.9157 13.7615 20.8077 13.4944 20.8069 13.1763C20.8062 12.8581 20.9142 12.591 21.1311 12.375C21.3479 12.1589 21.615 12.0508 21.9324 12.0508H24.1833C24.5021 12.0508 24.7696 12.1589 24.9857 12.375C25.2018 12.591 25.3095 12.8581 25.3087 13.1763C25.308 13.4944 25.1999 13.7619 24.9846 13.9787C24.7693 14.1955 24.5021 14.3032 24.1833 14.3017H21.9324ZM12.9288 5.29817C12.61 5.29817 12.3429 5.19012 12.1275 4.97404C11.9122 4.75795 11.8041 4.49085 11.8034 4.17272V1.92183C11.8034 1.60296 11.9114 1.33585 12.1275 1.12052C12.3436 0.905183 12.6107 0.797141 12.9288 0.796391C13.247 0.79564 13.5144 0.903683 13.7313 1.12052C13.9481 1.33735 14.0558 1.60446 14.0543 1.92183V4.17272C14.0543 4.4916 13.9462 4.75908 13.7302 4.97516C13.5141 5.19125 13.247 5.29892 12.9288 5.29817ZM12.9288 25.5562C12.61 25.5562 12.3429 25.4481 12.1275 25.232C11.9122 25.0159 11.8041 24.7488 11.8034 24.4307V22.1798C11.8034 21.8609 11.9114 21.5938 12.1275 21.3785C12.3436 21.1632 12.6107 21.0551 12.9288 21.0544C13.247 21.0536 13.5144 21.1617 13.7313 21.3785C13.9481 21.5953 14.0558 21.8624 14.0543 22.1798V24.4307C14.0543 24.7496 13.9462 25.0171 13.7302 25.2332C13.5141 25.4492 13.247 25.5569 12.9288 25.5562ZM5.78227 7.60533L4.57242 6.42361C4.34733 6.21728 4.23928 5.95467 4.24829 5.6358C4.25729 5.31692 4.36533 5.04494 4.57242 4.81985C4.7975 4.59476 5.06949 4.48222 5.38836 4.48222C5.70724 4.48222 5.96984 4.59476 6.17617 4.81985L7.35789 6.0297C7.56422 6.25479 7.66739 6.5174 7.66739 6.81751C7.66739 7.11763 7.56422 7.38024 7.35789 7.60533C7.15156 7.83041 6.89383 7.93846 6.58471 7.92945C6.27559 7.92045 6.00811 7.81241 5.78227 7.60533ZM19.6815 21.5327L18.4998 20.3228C18.2935 20.0978 18.1903 19.8306 18.1903 19.5215C18.1903 19.2124 18.2935 18.9543 18.4998 18.7472C18.7061 18.5221 18.9642 18.4145 19.2741 18.4242C19.584 18.434 19.8511 18.5416 20.0754 18.7472L21.2853 19.9289C21.5103 20.1353 21.6184 20.3979 21.6094 20.7167C21.6004 21.0356 21.4923 21.3076 21.2853 21.5327C21.0602 21.7578 20.7882 21.8703 20.4693 21.8703C20.1504 21.8703 19.8878 21.7578 19.6815 21.5327ZM18.4998 7.60533C18.2747 7.39899 18.1667 7.14127 18.1757 6.83215C18.1847 6.52302 18.2927 6.25554 18.4998 6.0297L19.6815 4.81985C19.8878 4.59476 20.1504 4.48672 20.4693 4.49572C20.7882 4.50473 21.0602 4.61277 21.2853 4.81985C21.5103 5.04494 21.6229 5.31692 21.6229 5.6358C21.6229 5.95467 21.5103 6.21728 21.2853 6.42361L20.0754 7.60533C19.8503 7.81166 19.5877 7.91482 19.2876 7.91482C18.9875 7.91482 18.7249 7.81166 18.4998 7.60533ZM4.57242 21.5327C4.34733 21.3076 4.23478 21.0356 4.23478 20.7167C4.23478 20.3979 4.34733 20.1353 4.57242 19.9289L5.78227 18.7472C6.00736 18.5409 6.27446 18.4377 6.58358 18.4377C6.89271 18.4377 7.15081 18.5409 7.35789 18.7472C7.58298 18.9536 7.69102 19.2117 7.68202 19.5215C7.67301 19.8314 7.56497 20.0985 7.35789 20.3228L6.17617 21.5327C5.96984 21.7578 5.70724 21.8658 5.38836 21.8568C5.06949 21.8478 4.7975 21.7398 4.57242 21.5327Z" fill="black"/>
</svg>
