<svg width="205" height="235" viewBox="0 0 205 235" fill="none" xmlns="http://www.w3.org/2000/svg">
<path d="M156.443 197.35L4.60837 232.836C3.16808 233.049 2.00049 231.847 2.00049 230.151V40.5686C2.00049 38.8726 3.16808 37.3249 4.60837 37.1117L156.443 1.62507C157.883 1.41191 159.051 2.61401 159.051 4.31004V193.893C159.051 195.589 157.883 197.136 156.443 197.35Z" fill="#EBF5EC"/>
<path d="M4.27644 234.306C3.42755 234.306 2.6223 234.007 1.96641 233.441C1.06946 232.668 0.555542 231.468 0.555542 230.151V40.5682C0.555542 38.1721 2.20821 36.045 4.33042 35.6923L156.173 0.204438L156.232 0.195565C157.276 0.0399115 158.289 0.333102 159.085 1.01931C159.982 1.79314 160.496 2.99252 160.496 4.30985V193.892C160.496 196.289 158.844 198.416 156.721 198.768L4.87909 234.257L4.81993 234.266C4.63729 234.292 4.45612 234.306 4.27644 234.306ZM156.7 3.04872L4.87909 38.5318L4.81993 38.5407C4.16996 38.6368 3.4453 39.4935 3.4453 40.5682V230.151C3.4453 230.62 3.59836 231.032 3.85421 231.253C3.99767 231.378 4.1633 231.43 4.35186 231.412L156.173 195.929L156.232 195.92C156.881 195.824 157.607 194.937 157.607 193.892V4.30985C157.607 3.84067 157.454 3.42843 157.198 3.20733C157.053 3.08273 156.889 3.0306 156.7 3.04872Z" fill="white"/>
<path d="M188.709 208.836L5.1532 233.03C3.412 233.136 2.00049 231.847 2.00049 230.151V40.5687C2.00049 38.8727 3.412 37.4118 5.1532 37.3057L188.709 13.1116C190.45 13.0055 191.861 14.2945 191.861 15.9905V205.573C191.861 207.269 190.45 208.73 188.709 208.836Z" fill="#EBF5EC"/>
<path d="M4.94844 234.568C3.77494 234.568 2.68204 234.142 1.84276 233.353C0.956907 232.519 0.468872 231.382 0.468872 230.152V40.5685C0.468872 38.0999 2.49643 35.9643 5.00168 35.781L188.562 11.5859L188.615 11.5826C189.906 11.5057 191.109 11.9327 192.019 12.7893C192.905 13.6231 193.393 14.76 193.393 15.9904V205.573C193.393 208.042 191.365 210.177 188.861 210.361L5.30042 234.556L5.24644 234.559C5.14661 234.565 5.04679 234.568 4.94844 234.568ZM188.847 14.638L5.30042 38.8312L5.24644 38.8345C4.31695 38.8911 3.53166 39.6852 3.53166 40.5685V230.152C3.53166 230.529 3.67733 230.873 3.94205 231.122C4.22008 231.383 4.61347 231.515 5.01425 231.504L188.561 207.311L188.615 207.307C189.545 207.251 190.33 206.457 190.33 205.573V15.9904C190.33 15.5072 190.107 15.1959 189.92 15.0199C189.642 14.7581 189.27 14.6228 188.847 14.638Z" fill="white"/>
<path d="M199.784 221.176L5.1532 233.03C3.412 233.136 2.00049 231.847 2.00049 230.151V40.5679C2.00049 38.8719 3.412 37.411 5.1532 37.305L199.784 25.4514C201.526 25.3454 202.937 26.6343 202.937 28.3303V217.913C202.937 219.609 201.526 221.07 199.784 221.176Z" fill="#EBF5EC"/>
<path d="M4.94844 234.568C3.77494 234.568 2.68204 234.142 1.84276 233.353C0.956907 232.519 0.468872 231.382 0.468872 230.151V40.5683C0.468872 38.0805 2.52823 35.9309 5.0601 35.7767L199.691 23.923C200.982 23.848 202.185 24.2735 203.095 25.1298C203.982 25.9635 204.469 27.1004 204.469 28.3309V217.914C204.469 220.401 202.41 222.551 199.878 222.706L5.24644 234.559C5.14661 234.565 5.04679 234.568 4.94844 234.568ZM199.983 26.9773C199.948 26.9773 199.913 26.9784 199.878 26.9806L5.24644 38.8343C4.31695 38.8909 3.53166 39.6851 3.53166 40.5683V230.151C3.53166 230.528 3.67733 230.873 3.94205 231.122C4.2297 231.393 4.62974 231.527 5.0601 231.501L199.691 219.648C200.621 219.591 201.406 218.797 201.406 217.914V28.3309C201.406 27.8476 201.183 27.5363 200.996 27.3603C200.732 27.1115 200.375 26.9773 199.983 26.9773Z" fill="white"/>
<path d="M30.2877 97.0757C28.9547 97.1745 28.3898 96.628 28.4408 95.2876L29.7578 60.5378C29.8088 59.1974 30.4184 58.5632 31.7513 58.4643L56.4953 56.6265C57.829 56.5276 58.3928 57.0743 58.3418 58.4154L58.104 64.6898C58.0534 66.0301 57.4446 66.6635 56.1109 66.7625L41.3924 67.8553L41.2359 71.985L51.635 71.2121C52.968 71.1133 53.5322 71.6599 53.4812 73.0003L53.2637 78.7385C53.2128 80.0789 52.6043 80.7123 51.2713 80.8111L40.8722 81.584L40.6972 86.1956L55.4156 85.1027C56.7493 85.0038 57.3135 85.5497 57.2625 86.8909L57.0248 93.1652C56.9738 94.5056 56.3653 95.139 55.0316 95.2379L30.2877 97.0757Z" fill="#E51131"/>
<path d="M65.1646 94.4843C63.8309 94.5832 63.2667 94.0366 63.3177 92.6961L64.6347 57.9464C64.6857 56.606 65.2946 55.9726 66.6282 55.8729L84.3855 54.5545C92.3853 53.9604 94.7536 57.4209 94.552 62.7299L94.459 65.1968C94.3452 68.1992 93.5174 70.4004 91.2407 71.5319C95.117 71.6721 97.5694 74.3238 97.3988 78.8285L96.9676 90.1972C96.9166 91.5376 96.3074 92.171 94.9744 92.2706L86.7087 92.8842C85.3758 92.9831 84.8116 92.4365 84.8626 91.096L85.1734 82.8917C85.2347 81.2824 84.7274 80.6251 83.235 80.736L75.7679 81.2901L75.3695 91.801C75.3186 93.1415 74.7101 93.7756 73.3771 93.8744L65.1646 94.4843ZM76.1338 71.6377L80.1334 71.3403C82.0002 71.2021 82.5209 70.0943 82.5762 68.6462L82.6449 66.8224C82.7003 65.375 82.2609 64.3381 80.3937 64.4763L76.3941 64.7737L76.1338 71.6377Z" fill="#E51131"/>
<path d="M87.7849 102.081C89.0891 101.868 89.6917 102.345 89.7581 103.644L90.7861 123.796C90.8998 126.029 90.9847 127.691 90.1754 130.39L87.9275 137.879C87.6151 138.978 87.0317 139.912 85.9358 140.09L78.9975 141.223C77.8499 141.411 76.8873 141.096 76.5185 140.057L73.6872 131.983C73.4438 131.341 73.1208 131.185 72.7031 131.253L72.2339 131.33C71.8162 131.398 71.5135 131.657 71.3396 132.366L69.3195 141.232C69.0592 142.323 68.303 142.969 67.2074 143.148L60.3216 144.272C59.1736 144.46 58.3517 143.809 57.9308 142.778L54.957 136.035C53.888 133.644 53.8035 131.982 53.6894 129.748L52.667 109.7C52.6009 108.402 53.1455 107.737 54.4496 107.524L62.4835 106.212C63.7876 105.999 64.3906 106.477 64.4566 107.775L65.4314 126.889L68.1235 119.85C68.6364 118.562 69.4502 118.01 70.8064 117.789L72.9978 117.431C74.354 117.21 75.2095 117.489 75.8446 118.589L79.2039 124.64L78.2291 105.526C78.163 104.228 78.6556 103.571 80.0122 103.35L87.7849 102.081Z" fill="black"/>
<path d="M107.062 136.64L99.3932 137.892C98.0891 138.106 97.4858 137.628 97.42 136.33L96.7207 122.618C96.6144 120.54 97.1084 117.842 98.3313 113.975L102.268 101.444C102.625 100.182 103.433 99.526 104.842 99.2959L118.875 97.0046C120.231 96.7825 121.092 97.1663 121.571 98.292L126.711 109.341C128.304 112.748 129.063 115.241 129.169 117.319L129.868 131.031C129.935 132.33 129.39 132.995 128.086 133.207L120.208 134.494C118.8 134.724 118.144 134.255 118.079 132.956L117.708 125.685L108.474 127.193L108.845 134.464C108.911 135.763 108.366 136.427 107.062 136.64ZM108.514 117.655L116.704 116.318L113.85 108.823C113.557 108.242 113.231 108.034 112.813 108.102L111.509 108.314C111.091 108.383 110.792 108.695 110.563 109.36L108.514 117.655Z" fill="black"/>
<path d="M137.318 131.702C136.014 131.914 135.41 131.437 135.344 130.139L135.035 124.062C134.968 122.763 135.513 122.097 136.817 121.885L150.85 119.593C151.737 119.449 152.172 118.697 152.13 117.866C152.069 116.671 151.576 116.281 150.683 116.322L142.803 116.509C137.862 116.582 134.574 115.024 134.277 109.207L133.998 103.753C133.696 97.8325 137.549 93.9565 144.331 92.8486L158.938 90.4639C160.242 90.2507 160.846 90.7286 160.911 92.0271L161.227 98.2081C161.293 99.5058 160.748 100.171 159.444 100.384L147.289 102.369C146.402 102.514 145.912 103.222 145.96 104.157C146.007 105.092 146.561 105.631 147.453 105.589L155.28 105.359C160.22 105.285 163.56 106.835 163.857 112.653L164.135 118.106C164.437 124.026 160.532 127.911 153.803 129.01L137.318 131.702Z" fill="black"/>
<path d="M35.1996 190.586C33.9309 190.68 33.3944 190.16 33.4428 188.885L34.6964 155.818C34.7447 154.542 35.3233 153.939 36.592 153.845L60.1382 152.096C61.4061 152.002 61.9433 152.522 61.895 153.798L61.6686 159.768C61.6203 161.043 61.0406 161.647 59.7726 161.741L45.7668 162.781L45.618 166.71L55.5135 165.975C56.7822 165.881 57.3183 166.401 57.2699 167.677L57.0632 173.137C57.0148 174.413 56.4358 175.015 55.1671 175.109L45.2716 175.844L45.1055 180.233L59.1113 179.193C60.3793 179.099 60.9161 179.618 60.8678 180.894L60.6414 186.865C60.5931 188.14 60.0137 188.743 58.7458 188.837L35.1996 190.586Z" fill="#E51131"/>
<path d="M68.383 188.123C67.115 188.216 66.5778 187.696 66.6262 186.421L67.8797 153.354C67.9281 152.078 68.5074 151.476 69.7754 151.381L93.3215 149.632C94.5902 149.538 95.1271 150.059 95.0783 151.334L94.8523 157.305C94.8036 158.58 94.2246 159.183 92.956 159.277L78.9501 160.317L78.8013 164.247L88.6972 163.512C89.9659 163.417 90.502 163.937 90.4533 165.213L90.2465 170.674C90.1985 171.949 89.6195 172.551 88.3509 172.646L78.455 173.381L78.2888 177.77L92.295 176.729C93.5637 176.635 94.0998 177.155 94.0511 178.431L93.8251 184.401C93.7764 185.676 93.1982 186.279 91.9295 186.374L68.383 188.123Z" fill="#E51131"/>
<path d="M101.568 185.657C100.299 185.752 99.7617 185.232 99.8104 183.957L101.064 150.89C101.112 149.614 101.691 149.011 102.96 148.917L108.237 148.525C109.557 148.426 110.355 148.723 111.179 149.68L120.595 160.277L121.007 149.408C121.055 148.133 121.634 147.53 122.903 147.435L130.515 146.87C131.783 146.776 132.321 147.296 132.272 148.571L131.019 181.638C130.971 182.914 130.39 183.517 129.123 183.612L121.51 184.177C120.242 184.271 119.706 183.75 119.754 182.475L119.991 176.199L111.714 166.28L111.076 183.12C111.027 184.396 110.448 184.998 109.179 185.092L101.568 185.657Z" fill="#E51131"/>
<path d="M138.863 182.888C137.593 182.982 137.057 182.462 137.105 181.187L137.331 175.217C137.38 173.941 137.959 173.338 139.228 173.243L152.879 172.23C153.741 172.166 154.222 171.469 154.253 170.652C154.297 169.479 153.859 169.053 153.001 169.014L145.429 168.509C140.686 168.149 137.668 166.337 137.885 160.622L138.088 155.264C138.308 149.447 142.336 145.992 148.932 145.503L163.141 144.447C164.409 144.353 164.946 144.873 164.897 146.149L164.668 152.221C164.619 153.497 164.039 154.1 162.771 154.194L150.948 155.072C150.084 155.136 149.554 155.787 149.519 156.705C149.485 157.623 149.968 158.198 150.828 158.236L158.351 158.695C163.093 159.055 166.162 160.863 165.945 166.578L165.742 171.936C165.521 177.753 161.444 181.211 154.898 181.697L138.863 182.888Z" fill="#E51131"/>
<path d="M129.518 208.93C128.234 209.187 127.62 208.741 127.507 207.468L126.587 197.136C126.469 195.812 126.989 195.189 128.273 194.931L138.644 192.849C139.928 192.591 140.538 192.988 140.655 194.312L141.575 204.644C141.688 205.917 141.173 206.59 139.889 206.847L129.518 208.93Z" fill="black"/>
<path d="M149.234 204.97C147.951 205.228 147.336 204.781 147.223 203.509L146.304 193.176C146.187 191.853 146.706 191.23 147.989 190.972L158.36 188.89C159.645 188.632 160.254 189.029 160.372 190.352L161.291 200.685C161.404 201.957 160.89 202.63 159.605 202.889L149.234 204.97Z" fill="black"/>
<path d="M168.951 201.013C167.667 201.271 167.053 200.823 166.939 199.551L166.021 189.218C165.903 187.895 166.422 187.272 167.706 187.015L178.077 184.933C179.36 184.675 179.97 185.071 180.089 186.394L181.007 196.727C181.121 197.999 180.606 198.673 179.323 198.931L168.951 201.013Z" fill="black"/>
</svg>
