<svg width="3934" height="57" viewBox="0 0 3934 57" fill="none" xmlns="http://www.w3.org/2000/svg">
<rect x="0.991699" y="29.2241" width="39.0217" height="25.9969" rx="7.5" fill="#DAD9D3" fill-opacity="0.46" stroke="black" stroke-width="2"/>
<rect x="65.968" y="29.2241" width="39.0217" height="25.9969" rx="7.5" fill="#DAD9D3" fill-opacity="0.46" stroke="black" stroke-width="2"/>
<rect x="130.447" y="29.2241" width="39.0217" height="25.9969" rx="7.5" fill="#DAD9D3" fill-opacity="0.46" stroke="black" stroke-width="2"/>
<rect x="194.927" y="29.2241" width="39.0217" height="25.9969" rx="7.5" fill="#DAD9D3" fill-opacity="0.46" stroke="black" stroke-width="2"/>
<rect x="259.406" y="29.2241" width="39.0217" height="25.9969" rx="7.5" fill="#DAD9D3" fill-opacity="0.46" stroke="black" stroke-width="2"/>
<rect x="323.885" y="29.2241" width="39.0217" height="25.9969" rx="7.5" fill="#DAD9D3" fill-opacity="0.46" stroke="black" stroke-width="2"/>
<rect x="388.365" y="29.2241" width="39.0217" height="25.9969" rx="7.5" fill="#DAD9D3" fill-opacity="0.46" stroke="black" stroke-width="2"/>
<rect x="452.844" y="29.2241" width="39.0217" height="25.9969" rx="7.5" fill="#DAD9D3" fill-opacity="0.46" stroke="black" stroke-width="2"/>
<rect x="517.323" y="29.2241" width="39.0217" height="25.9969" rx="7.5" fill="#DAD9D3" fill-opacity="0.46" stroke="black" stroke-width="2"/>
<rect x="581.803" y="29.2241" width="39.0217" height="25.9969" rx="7.5" fill="#DAD9D3" fill-opacity="0.46" stroke="black" stroke-width="2"/>
<rect x="646.282" y="29.2241" width="39.0217" height="25.9969" rx="7.5" fill="#DAD9D3" fill-opacity="0.46" stroke="black" stroke-width="2"/>
<rect x="1228.06" y="29.2241" width="39.0217" height="25.9969" rx="7.5" fill="#DAD9D3" fill-opacity="0.46" stroke="black" stroke-width="2"/>
<rect x="2133.71" y="29.2241" width="39.0217" height="25.9969" rx="7.5" fill="#DAD9D3" fill-opacity="0.46" stroke="black" stroke-width="2"/>
<rect x="3298.74" y="29.2241" width="39.0217" height="25.9969" rx="7.5" fill="#DAD9D3" fill-opacity="0.46" stroke="black" stroke-width="2"/>
<rect x="710.761" y="29.2241" width="39.0217" height="25.9969" rx="7.5" fill="#DAD9D3" fill-opacity="0.46" stroke="black" stroke-width="2"/>
<rect x="1292.54" y="29.2241" width="39.0217" height="25.9969" rx="7.5" fill="#DAD9D3" fill-opacity="0.46" stroke="black" stroke-width="2"/>
<rect x="2198.19" y="29.2241" width="39.0217" height="25.9969" rx="7.5" fill="#DAD9D3" fill-opacity="0.46" stroke="black" stroke-width="2"/>
<rect x="3363.22" y="29.2241" width="39.0217" height="25.9969" rx="7.5" fill="#DAD9D3" fill-opacity="0.46" stroke="black" stroke-width="2"/>
<rect x="775.241" y="29.2241" width="39.0217" height="25.9969" rx="7.5" fill="#DAD9D3" fill-opacity="0.46" stroke="black" stroke-width="2"/>
<rect x="1357.02" y="29.2241" width="39.0217" height="25.9969" rx="7.5" fill="#DAD9D3" fill-opacity="0.46" stroke="black" stroke-width="2"/>
<rect x="2262.67" y="29.2241" width="39.0217" height="25.9969" rx="7.5" fill="#DAD9D3" fill-opacity="0.46" stroke="black" stroke-width="2"/>
<rect x="3427.7" y="29.2241" width="39.0217" height="25.9969" rx="7.5" fill="#DAD9D3" fill-opacity="0.46" stroke="black" stroke-width="2"/>
<rect x="839.72" y="29.2241" width="39.0217" height="25.9969" rx="7.5" fill="#DAD9D3" fill-opacity="0.46" stroke="black" stroke-width="2"/>
<rect x="1421.5" y="29.2241" width="39.0217" height="25.9969" rx="7.5" fill="#DAD9D3" fill-opacity="0.46" stroke="black" stroke-width="2"/>
<rect x="2327.15" y="29.2241" width="39.0217" height="25.9969" rx="7.5" fill="#DAD9D3" fill-opacity="0.46" stroke="black" stroke-width="2"/>
<rect x="3492.18" y="29.2241" width="39.0217" height="25.9969" rx="7.5" fill="#DAD9D3" fill-opacity="0.46" stroke="black" stroke-width="2"/>
<rect x="904.199" y="29.2241" width="39.0217" height="25.9969" rx="7.5" fill="#DAD9D3" fill-opacity="0.46" stroke="black" stroke-width="2"/>
<rect x="1809.84" y="29.2241" width="39.0217" height="25.9969" rx="7.5" fill="#DAD9D3" fill-opacity="0.46" stroke="black" stroke-width="2"/>
<rect x="2974.88" y="29.2241" width="39.0217" height="25.9969" rx="7.5" fill="#DAD9D3" fill-opacity="0.46" stroke="black" stroke-width="2"/>
<rect x="1485.98" y="29.2241" width="39.0217" height="25.9969" rx="7.5" fill="#DAD9D3" fill-opacity="0.46" stroke="black" stroke-width="2"/>
<rect x="2391.63" y="29.2241" width="39.0217" height="25.9969" rx="7.5" fill="#DAD9D3" fill-opacity="0.46" stroke="black" stroke-width="2"/>
<rect x="3556.66" y="29.2241" width="39.0217" height="25.9969" rx="7.5" fill="#DAD9D3" fill-opacity="0.46" stroke="black" stroke-width="2"/>
<rect x="968.679" y="29.2241" width="39.0217" height="25.9969" rx="7.5" fill="#DAD9D3" fill-opacity="0.46" stroke="black" stroke-width="2"/>
<rect x="1874.32" y="29.2241" width="39.0217" height="25.9969" rx="7.5" fill="#DAD9D3" fill-opacity="0.46" stroke="black" stroke-width="2"/>
<rect x="3039.35" y="29.2241" width="39.0217" height="25.9969" rx="7.5" fill="#DAD9D3" fill-opacity="0.46" stroke="black" stroke-width="2"/>
<rect x="1550.46" y="29.2241" width="39.0217" height="25.9969" rx="7.5" fill="#DAD9D3" fill-opacity="0.46" stroke="black" stroke-width="2"/>
<rect x="2715.49" y="29.2241" width="39.0217" height="25.9969" rx="7.5" fill="#DAD9D3" fill-opacity="0.46" stroke="black" stroke-width="2"/>
<rect x="2456.11" y="29.2241" width="39.0217" height="25.9969" rx="7.5" fill="#DAD9D3" fill-opacity="0.46" stroke="black" stroke-width="2"/>
<rect x="3621.14" y="29.2241" width="39.0217" height="25.9969" rx="7.5" fill="#DAD9D3" fill-opacity="0.46" stroke="black" stroke-width="2"/>
<rect x="1033.16" y="29.2241" width="39.0217" height="25.9969" rx="7.5" fill="#DAD9D3" fill-opacity="0.46" stroke="black" stroke-width="2"/>
<rect x="1938.8" y="29.2241" width="39.0217" height="25.9969" rx="7.5" fill="#DAD9D3" fill-opacity="0.46" stroke="black" stroke-width="2"/>
<rect x="3103.83" y="29.2241" width="39.0217" height="25.9969" rx="7.5" fill="#DAD9D3" fill-opacity="0.46" stroke="black" stroke-width="2"/>
<rect x="1614.94" y="29.2241" width="39.0217" height="25.9969" rx="7.5" fill="#DAD9D3" fill-opacity="0.46" stroke="black" stroke-width="2"/>
<rect x="2779.97" y="29.2241" width="39.0217" height="25.9969" rx="7.5" fill="#DAD9D3" fill-opacity="0.46" stroke="black" stroke-width="2"/>
<rect x="2520.58" y="29.2241" width="39.0217" height="25.9969" rx="7.5" fill="#DAD9D3" fill-opacity="0.46" stroke="black" stroke-width="2"/>
<rect x="3685.62" y="29.2241" width="39.0217" height="25.9969" rx="7.5" fill="#DAD9D3" fill-opacity="0.46" stroke="black" stroke-width="2"/>
<rect x="1097.64" y="29.2241" width="39.0217" height="25.9969" rx="7.5" fill="#DAD9D3" fill-opacity="0.46" stroke="black" stroke-width="2"/>
<rect x="2003.28" y="29.2241" width="39.0217" height="25.9969" rx="7.5" fill="#DAD9D3" fill-opacity="0.46" stroke="black" stroke-width="2"/>
<rect x="3168.31" y="29.2241" width="39.0217" height="25.9969" rx="7.5" fill="#DAD9D3" fill-opacity="0.46" stroke="black" stroke-width="2"/>
<rect x="1679.42" y="29.2241" width="39.0217" height="25.9969" rx="7.5" fill="#DAD9D3" fill-opacity="0.46" stroke="black" stroke-width="2"/>
<rect x="2844.45" y="29.2241" width="39.0217" height="25.9969" rx="7.5" fill="#DAD9D3" fill-opacity="0.46" stroke="black" stroke-width="2"/>
<rect x="2585.06" y="29.2241" width="39.0217" height="25.9969" rx="7.5" fill="#DAD9D3" fill-opacity="0.46" stroke="black" stroke-width="2"/>
<rect x="3750.1" y="29.2241" width="39.0217" height="25.9969" rx="7.5" fill="#DAD9D3" fill-opacity="0.46" stroke="black" stroke-width="2"/>
<rect x="1162.12" y="29.2241" width="39.0217" height="25.9969" rx="7.5" fill="#DAD9D3" fill-opacity="0.46" stroke="black" stroke-width="2"/>
<rect x="2067.76" y="29.2241" width="39.0217" height="25.9969" rx="7.5" fill="#DAD9D3" fill-opacity="0.46" stroke="black" stroke-width="2"/>
<rect x="3232.79" y="29.2241" width="39.0217" height="25.9969" rx="7.5" fill="#DAD9D3" fill-opacity="0.46" stroke="black" stroke-width="2"/>
<rect x="1743.9" y="29.2241" width="39.0217" height="25.9969" rx="7.5" fill="#DAD9D3" fill-opacity="0.46" stroke="black" stroke-width="2"/>
<rect x="2908.93" y="29.2241" width="39.0217" height="25.9969" rx="7.5" fill="#DAD9D3" fill-opacity="0.46" stroke="black" stroke-width="2"/>
<rect x="2649.54" y="29.2241" width="39.0217" height="25.9969" rx="7.5" fill="#DAD9D3" fill-opacity="0.46" stroke="black" stroke-width="2"/>
<rect x="3814.57" y="29.2241" width="39.0217" height="25.9969" rx="7.5" fill="#DAD9D3" fill-opacity="0.46" stroke="black" stroke-width="2"/>
<rect x="3880.52" y="29.2241" width="39.0217" height="25.9969" rx="7.5" fill="#DAD9D3" fill-opacity="0.46" stroke="black" stroke-width="2"/>
<rect x="98.2075" y="23.0625" width="39.0217" height="25.9969" rx="7.5" fill="#DAD9D3" fill-opacity="0.46" stroke="black" stroke-width="2"/>
<rect x="33.2314" y="23.0625" width="39.0217" height="25.9969" rx="7.5" fill="#DAD9D3" fill-opacity="0.46" stroke="black" stroke-width="2"/>
<rect x="162.687" y="23.0625" width="39.0217" height="25.9969" rx="7.5" fill="#DAD9D3" fill-opacity="0.46" stroke="black" stroke-width="2"/>
<rect x="227.166" y="23.0625" width="39.0217" height="25.9969" rx="7.5" fill="#DAD9D3" fill-opacity="0.46" stroke="black" stroke-width="2"/>
<rect x="291.646" y="23.0625" width="39.0217" height="25.9969" rx="7.5" fill="#DAD9D3" fill-opacity="0.46" stroke="black" stroke-width="2"/>
<rect x="356.125" y="23.0625" width="39.0217" height="25.9969" rx="7.5" fill="#DAD9D3" fill-opacity="0.46" stroke="black" stroke-width="2"/>
<rect x="420.604" y="23.0625" width="39.0217" height="25.9969" rx="7.5" fill="#DAD9D3" fill-opacity="0.46" stroke="black" stroke-width="2"/>
<rect x="485.084" y="23.0625" width="39.0217" height="25.9969" rx="7.5" fill="#DAD9D3" fill-opacity="0.46" stroke="black" stroke-width="2"/>
<rect x="549.563" y="23.0625" width="39.0217" height="25.9969" rx="7.5" fill="#DAD9D3" fill-opacity="0.46" stroke="black" stroke-width="2"/>
<rect x="614.042" y="23.0625" width="39.0217" height="25.9969" rx="7.5" fill="#DAD9D3" fill-opacity="0.46" stroke="black" stroke-width="2"/>
<rect x="678.521" y="23.0625" width="39.0217" height="25.9969" rx="7.5" fill="#DAD9D3" fill-opacity="0.46" stroke="black" stroke-width="2"/>
<rect x="1260.3" y="23.0625" width="39.0217" height="25.9969" rx="7.5" fill="#DAD9D3" fill-opacity="0.46" stroke="black" stroke-width="2"/>
<rect x="2165.95" y="23.0625" width="39.0217" height="25.9969" rx="7.5" fill="#DAD9D3" fill-opacity="0.46" stroke="black" stroke-width="2"/>
<rect x="3330.98" y="23.0625" width="39.0217" height="25.9969" rx="7.5" fill="#DAD9D3" fill-opacity="0.46" stroke="black" stroke-width="2"/>
<rect x="743.001" y="23.0625" width="39.0217" height="25.9969" rx="7.5" fill="#DAD9D3" fill-opacity="0.46" stroke="black" stroke-width="2"/>
<rect x="1324.78" y="23.0625" width="39.0217" height="25.9969" rx="7.5" fill="#DAD9D3" fill-opacity="0.46" stroke="black" stroke-width="2"/>
<rect x="2230.43" y="23.0625" width="39.0217" height="25.9969" rx="7.5" fill="#DAD9D3" fill-opacity="0.46" stroke="black" stroke-width="2"/>
<rect x="3395.46" y="23.0625" width="39.0217" height="25.9969" rx="7.5" fill="#DAD9D3" fill-opacity="0.46" stroke="black" stroke-width="2"/>
<rect x="807.48" y="23.0625" width="39.0217" height="25.9969" rx="7.5" fill="#DAD9D3" fill-opacity="0.46" stroke="black" stroke-width="2"/>
<rect x="1389.26" y="23.0625" width="39.0217" height="25.9969" rx="7.5" fill="#DAD9D3" fill-opacity="0.46" stroke="black" stroke-width="2"/>
<rect x="2294.91" y="23.0625" width="39.0217" height="25.9969" rx="7.5" fill="#DAD9D3" fill-opacity="0.46" stroke="black" stroke-width="2"/>
<rect x="3459.94" y="23.0625" width="39.0217" height="25.9969" rx="7.5" fill="#DAD9D3" fill-opacity="0.46" stroke="black" stroke-width="2"/>
<rect x="871.959" y="23.0625" width="39.0217" height="25.9969" rx="7.5" fill="#DAD9D3" fill-opacity="0.46" stroke="black" stroke-width="2"/>
<rect x="1453.74" y="23.0625" width="39.0217" height="25.9969" rx="7.5" fill="#DAD9D3" fill-opacity="0.46" stroke="black" stroke-width="2"/>
<rect x="2359.39" y="23.0625" width="39.0217" height="25.9969" rx="7.5" fill="#DAD9D3" fill-opacity="0.46" stroke="black" stroke-width="2"/>
<rect x="3524.42" y="23.0625" width="39.0217" height="25.9969" rx="7.5" fill="#DAD9D3" fill-opacity="0.46" stroke="black" stroke-width="2"/>
<rect x="936.439" y="23.0625" width="39.0217" height="25.9969" rx="7.5" fill="#DAD9D3" fill-opacity="0.46" stroke="black" stroke-width="2"/>
<rect x="1842.08" y="23.0625" width="39.0217" height="25.9969" rx="7.5" fill="#DAD9D3" fill-opacity="0.46" stroke="black" stroke-width="2"/>
<rect x="3007.12" y="23.0625" width="39.0217" height="25.9969" rx="7.5" fill="#DAD9D3" fill-opacity="0.46" stroke="black" stroke-width="2"/>
<rect x="1518.22" y="23.0625" width="39.0217" height="25.9969" rx="7.5" fill="#DAD9D3" fill-opacity="0.46" stroke="black" stroke-width="2"/>
<rect x="2423.87" y="23.0625" width="39.0217" height="25.9969" rx="7.5" fill="#DAD9D3" fill-opacity="0.46" stroke="black" stroke-width="2"/>
<rect x="3588.9" y="23.0625" width="39.0217" height="25.9969" rx="7.5" fill="#DAD9D3" fill-opacity="0.46" stroke="black" stroke-width="2"/>
<rect x="1000.92" y="23.0625" width="39.0217" height="25.9969" rx="7.5" fill="#DAD9D3" fill-opacity="0.46" stroke="black" stroke-width="2"/>
<rect x="1906.56" y="23.0625" width="39.0217" height="25.9969" rx="7.5" fill="#DAD9D3" fill-opacity="0.46" stroke="black" stroke-width="2"/>
<rect x="3071.59" y="23.0625" width="39.0217" height="25.9969" rx="7.5" fill="#DAD9D3" fill-opacity="0.46" stroke="black" stroke-width="2"/>
<rect x="1582.7" y="23.0625" width="39.0217" height="25.9969" rx="7.5" fill="#DAD9D3" fill-opacity="0.46" stroke="black" stroke-width="2"/>
<rect x="2747.73" y="23.0625" width="39.0217" height="25.9969" rx="7.5" fill="#DAD9D3" fill-opacity="0.46" stroke="black" stroke-width="2"/>
<rect x="2488.35" y="23.0625" width="39.0217" height="25.9969" rx="7.5" fill="#DAD9D3" fill-opacity="0.46" stroke="black" stroke-width="2"/>
<rect x="3653.38" y="23.0625" width="39.0217" height="25.9969" rx="7.5" fill="#DAD9D3" fill-opacity="0.46" stroke="black" stroke-width="2"/>
<rect x="1065.4" y="23.0625" width="39.0217" height="25.9969" rx="7.5" fill="#DAD9D3" fill-opacity="0.46" stroke="black" stroke-width="2"/>
<rect x="1971.04" y="23.0625" width="39.0217" height="25.9969" rx="7.5" fill="#DAD9D3" fill-opacity="0.46" stroke="black" stroke-width="2"/>
<rect x="3136.07" y="23.0625" width="39.0217" height="25.9969" rx="7.5" fill="#DAD9D3" fill-opacity="0.46" stroke="black" stroke-width="2"/>
<rect x="1647.18" y="23.0625" width="39.0217" height="25.9969" rx="7.5" fill="#DAD9D3" fill-opacity="0.46" stroke="black" stroke-width="2"/>
<rect x="2812.21" y="23.0625" width="39.0217" height="25.9969" rx="7.5" fill="#DAD9D3" fill-opacity="0.46" stroke="black" stroke-width="2"/>
<rect x="2552.82" y="23.0625" width="39.0217" height="25.9969" rx="7.5" fill="#DAD9D3" fill-opacity="0.46" stroke="black" stroke-width="2"/>
<rect x="3717.86" y="23.0625" width="39.0217" height="25.9969" rx="7.5" fill="#DAD9D3" fill-opacity="0.46" stroke="black" stroke-width="2"/>
<rect x="1129.88" y="23.0625" width="39.0217" height="25.9969" rx="7.5" fill="#DAD9D3" fill-opacity="0.46" stroke="black" stroke-width="2"/>
<rect x="2035.52" y="23.0625" width="39.0217" height="25.9969" rx="7.5" fill="#DAD9D3" fill-opacity="0.46" stroke="black" stroke-width="2"/>
<rect x="3200.55" y="23.0625" width="39.0217" height="25.9969" rx="7.5" fill="#DAD9D3" fill-opacity="0.46" stroke="black" stroke-width="2"/>
<rect x="1711.66" y="23.0625" width="39.0217" height="25.9969" rx="7.5" fill="#DAD9D3" fill-opacity="0.46" stroke="black" stroke-width="2"/>
<rect x="2876.69" y="23.0625" width="39.0217" height="25.9969" rx="7.5" fill="#DAD9D3" fill-opacity="0.46" stroke="black" stroke-width="2"/>
<rect x="2617.3" y="23.0625" width="39.0217" height="25.9969" rx="7.5" fill="#DAD9D3" fill-opacity="0.46" stroke="black" stroke-width="2"/>
<rect x="3782.33" y="23.0625" width="39.0217" height="25.9969" rx="7.5" fill="#DAD9D3" fill-opacity="0.46" stroke="black" stroke-width="2"/>
<rect x="1195.82" y="23.0625" width="39.0217" height="25.9969" rx="7.5" fill="#DAD9D3" fill-opacity="0.46" stroke="black" stroke-width="2"/>
<rect x="2101.47" y="23.0625" width="39.0217" height="25.9969" rx="7.5" fill="#DAD9D3" fill-opacity="0.46" stroke="black" stroke-width="2"/>
<rect x="3266.5" y="23.0625" width="39.0217" height="25.9969" rx="7.5" fill="#DAD9D3" fill-opacity="0.46" stroke="black" stroke-width="2"/>
<rect x="1777.61" y="23.0625" width="39.0217" height="25.9969" rx="7.5" fill="#DAD9D3" fill-opacity="0.46" stroke="black" stroke-width="2"/>
<rect x="2942.64" y="23.0625" width="39.0217" height="25.9969" rx="7.5" fill="#DAD9D3" fill-opacity="0.46" stroke="black" stroke-width="2"/>
<rect x="2683.25" y="23.0625" width="39.0217" height="25.9969" rx="7.5" fill="#DAD9D3" fill-opacity="0.46" stroke="black" stroke-width="2"/>
<rect x="3848.28" y="23.0625" width="39.0217" height="25.9969" rx="7.5" fill="#DAD9D3" fill-opacity="0.46" stroke="black" stroke-width="2"/>
<rect x="13.9019" y="20.5347" width="39.0217" height="25.9969" rx="7.5" fill="#EDECEA" fill-opacity="0.84" stroke="black" stroke-width="2"/>
<rect x="78.8779" y="20.5347" width="39.0217" height="25.9969" rx="7.5" fill="#EDECEA" fill-opacity="0.84" stroke="black" stroke-width="2"/>
<rect x="143.357" y="20.5347" width="39.0217" height="25.9969" rx="7.5" fill="#EDECEA" fill-opacity="0.84" stroke="black" stroke-width="2"/>
<rect x="207.837" y="20.5347" width="39.0217" height="25.9969" rx="7.5" fill="#EDECEA" fill-opacity="0.84" stroke="black" stroke-width="2"/>
<rect x="272.316" y="20.5347" width="39.0217" height="25.9969" rx="7.5" fill="#EDECEA" fill-opacity="0.84" stroke="black" stroke-width="2"/>
<rect x="336.795" y="20.5347" width="39.0217" height="25.9969" rx="7.5" fill="#EDECEA" fill-opacity="0.84" stroke="black" stroke-width="2"/>
<rect x="401.275" y="20.5347" width="39.0217" height="25.9969" rx="7.5" fill="#EDECEA" fill-opacity="0.84" stroke="black" stroke-width="2"/>
<rect x="465.754" y="20.5347" width="39.0217" height="25.9969" rx="7.5" fill="#EDECEA" fill-opacity="0.84" stroke="black" stroke-width="2"/>
<rect x="530.233" y="20.5347" width="39.0217" height="25.9969" rx="7.5" fill="#EDECEA" fill-opacity="0.84" stroke="black" stroke-width="2"/>
<rect x="594.713" y="20.5347" width="39.0217" height="25.9969" rx="7.5" fill="#EDECEA" fill-opacity="0.84" stroke="black" stroke-width="2"/>
<rect x="659.192" y="20.5347" width="39.0217" height="25.9969" rx="7.5" fill="#EDECEA" fill-opacity="0.84" stroke="black" stroke-width="2"/>
<rect x="1240.97" y="20.5347" width="39.0217" height="25.9969" rx="7.5" fill="#EDECEA" fill-opacity="0.84" stroke="black" stroke-width="2"/>
<rect x="2146.62" y="20.5347" width="39.0217" height="25.9969" rx="7.5" fill="#EDECEA" fill-opacity="0.84" stroke="black" stroke-width="2"/>
<rect x="3311.65" y="20.5347" width="39.0217" height="25.9969" rx="7.5" fill="#EDECEA" fill-opacity="0.84" stroke="black" stroke-width="2"/>
<rect x="723.671" y="20.5347" width="39.0217" height="25.9969" rx="7.5" fill="#EDECEA" fill-opacity="0.84" stroke="black" stroke-width="2"/>
<rect x="1305.45" y="20.5347" width="39.0217" height="25.9969" rx="7.5" fill="#EDECEA" fill-opacity="0.84" stroke="black" stroke-width="2"/>
<rect x="2211.1" y="20.5347" width="39.0217" height="25.9969" rx="7.5" fill="#EDECEA" fill-opacity="0.84" stroke="black" stroke-width="2"/>
<rect x="3376.13" y="20.5347" width="39.0217" height="25.9969" rx="7.5" fill="#EDECEA" fill-opacity="0.84" stroke="black" stroke-width="2"/>
<rect x="788.151" y="20.5347" width="39.0217" height="25.9969" rx="7.5" fill="#EDECEA" fill-opacity="0.84" stroke="black" stroke-width="2"/>
<rect x="1369.93" y="20.5347" width="39.0217" height="25.9969" rx="7.5" fill="#EDECEA" fill-opacity="0.84" stroke="black" stroke-width="2"/>
<rect x="2275.58" y="20.5347" width="39.0217" height="25.9969" rx="7.5" fill="#EDECEA" fill-opacity="0.84" stroke="black" stroke-width="2"/>
<rect x="3440.61" y="20.5347" width="39.0217" height="25.9969" rx="7.5" fill="#EDECEA" fill-opacity="0.84" stroke="black" stroke-width="2"/>
<rect x="852.63" y="20.5347" width="39.0217" height="25.9969" rx="7.5" fill="#EDECEA" fill-opacity="0.84" stroke="black" stroke-width="2"/>
<rect x="1434.41" y="20.5347" width="39.0217" height="25.9969" rx="7.5" fill="#EDECEA" fill-opacity="0.84" stroke="black" stroke-width="2"/>
<rect x="2340.06" y="20.5347" width="39.0217" height="25.9969" rx="7.5" fill="#EDECEA" fill-opacity="0.84" stroke="black" stroke-width="2"/>
<rect x="3505.09" y="20.5347" width="39.0217" height="25.9969" rx="7.5" fill="#EDECEA" fill-opacity="0.84" stroke="black" stroke-width="2"/>
<rect x="917.109" y="20.5347" width="39.0217" height="25.9969" rx="7.5" fill="#EDECEA" fill-opacity="0.84" stroke="black" stroke-width="2"/>
<rect x="1822.75" y="20.5347" width="39.0217" height="25.9969" rx="7.5" fill="#EDECEA" fill-opacity="0.84" stroke="black" stroke-width="2"/>
<rect x="2987.79" y="20.5347" width="39.0217" height="25.9969" rx="7.5" fill="#EDECEA" fill-opacity="0.84" stroke="black" stroke-width="2"/>
<rect x="1498.89" y="20.5347" width="39.0217" height="25.9969" rx="7.5" fill="#EDECEA" fill-opacity="0.84" stroke="black" stroke-width="2"/>
<rect x="2404.54" y="20.5347" width="39.0217" height="25.9969" rx="7.5" fill="#EDECEA" fill-opacity="0.84" stroke="black" stroke-width="2"/>
<rect x="3569.57" y="20.5347" width="39.0217" height="25.9969" rx="7.5" fill="#EDECEA" fill-opacity="0.84" stroke="black" stroke-width="2"/>
<rect x="981.589" y="20.5347" width="39.0217" height="25.9969" rx="7.5" fill="#EDECEA" fill-opacity="0.84" stroke="black" stroke-width="2"/>
<rect x="1887.23" y="20.5347" width="39.0217" height="25.9969" rx="7.5" fill="#EDECEA" fill-opacity="0.84" stroke="black" stroke-width="2"/>
<rect x="3052.27" y="20.5347" width="39.0217" height="25.9969" rx="7.5" fill="#EDECEA" fill-opacity="0.84" stroke="black" stroke-width="2"/>
<rect x="1563.37" y="20.5347" width="39.0217" height="25.9969" rx="7.5" fill="#EDECEA" fill-opacity="0.84" stroke="black" stroke-width="2"/>
<rect x="2728.4" y="20.5347" width="39.0217" height="25.9969" rx="7.5" fill="#EDECEA" fill-opacity="0.84" stroke="black" stroke-width="2"/>
<rect x="2469.02" y="20.5347" width="39.0217" height="25.9969" rx="7.5" fill="#EDECEA" fill-opacity="0.84" stroke="black" stroke-width="2"/>
<rect x="3634.05" y="20.5347" width="39.0217" height="25.9969" rx="7.5" fill="#EDECEA" fill-opacity="0.84" stroke="black" stroke-width="2"/>
<rect x="1046.07" y="20.5347" width="39.0217" height="25.9969" rx="7.5" fill="#EDECEA" fill-opacity="0.84" stroke="black" stroke-width="2"/>
<rect x="1951.71" y="20.5347" width="39.0217" height="25.9969" rx="7.5" fill="#EDECEA" fill-opacity="0.84" stroke="black" stroke-width="2"/>
<rect x="3116.74" y="20.5347" width="39.0217" height="25.9969" rx="7.5" fill="#EDECEA" fill-opacity="0.84" stroke="black" stroke-width="2"/>
<rect x="1627.85" y="20.5347" width="39.0217" height="25.9969" rx="7.5" fill="#EDECEA" fill-opacity="0.84" stroke="black" stroke-width="2"/>
<rect x="2792.88" y="20.5347" width="39.0217" height="25.9969" rx="7.5" fill="#EDECEA" fill-opacity="0.84" stroke="black" stroke-width="2"/>
<rect x="2533.5" y="20.5347" width="39.0217" height="25.9969" rx="7.5" fill="#EDECEA" fill-opacity="0.84" stroke="black" stroke-width="2"/>
<rect x="3698.53" y="20.5347" width="39.0217" height="25.9969" rx="7.5" fill="#EDECEA" fill-opacity="0.84" stroke="black" stroke-width="2"/>
<rect x="1110.55" y="20.5347" width="39.0217" height="25.9969" rx="7.5" fill="#EDECEA" fill-opacity="0.84" stroke="black" stroke-width="2"/>
<rect x="2016.19" y="20.5347" width="39.0217" height="25.9969" rx="7.5" fill="#EDECEA" fill-opacity="0.84" stroke="black" stroke-width="2"/>
<rect x="3181.22" y="20.5347" width="39.0217" height="25.9969" rx="7.5" fill="#EDECEA" fill-opacity="0.84" stroke="black" stroke-width="2"/>
<rect x="1692.33" y="20.5347" width="39.0217" height="25.9969" rx="7.5" fill="#EDECEA" fill-opacity="0.84" stroke="black" stroke-width="2"/>
<rect x="2857.36" y="20.5347" width="39.0217" height="25.9969" rx="7.5" fill="#EDECEA" fill-opacity="0.84" stroke="black" stroke-width="2"/>
<rect x="2597.97" y="20.5347" width="39.0217" height="25.9969" rx="7.5" fill="#EDECEA" fill-opacity="0.84" stroke="black" stroke-width="2"/>
<rect x="3763.01" y="20.5347" width="39.0217" height="25.9969" rx="7.5" fill="#EDECEA" fill-opacity="0.84" stroke="black" stroke-width="2"/>
<rect x="1175.03" y="20.5347" width="39.0217" height="25.9969" rx="7.5" fill="#EDECEA" fill-opacity="0.84" stroke="black" stroke-width="2"/>
<rect x="2080.67" y="20.5347" width="39.0217" height="25.9969" rx="7.5" fill="#EDECEA" fill-opacity="0.84" stroke="black" stroke-width="2"/>
<rect x="3245.7" y="20.5347" width="39.0217" height="25.9969" rx="7.5" fill="#EDECEA" fill-opacity="0.84" stroke="black" stroke-width="2"/>
<rect x="1756.81" y="20.5347" width="39.0217" height="25.9969" rx="7.5" fill="#EDECEA" fill-opacity="0.84" stroke="black" stroke-width="2"/>
<rect x="2921.84" y="20.5347" width="39.0217" height="25.9969" rx="7.5" fill="#EDECEA" fill-opacity="0.84" stroke="black" stroke-width="2"/>
<rect x="2662.45" y="20.5347" width="39.0217" height="25.9969" rx="7.5" fill="#EDECEA" fill-opacity="0.84" stroke="black" stroke-width="2"/>
<rect x="3827.48" y="20.5347" width="39.0217" height="25.9969" rx="7.5" fill="#EDECEA" fill-opacity="0.84" stroke="black" stroke-width="2"/>
<rect x="3893.43" y="20.5347" width="39.0217" height="25.9969" rx="7.5" fill="#EDECEA" fill-opacity="0.84" stroke="black" stroke-width="2"/>
<rect x="111.118" y="14.373" width="39.0217" height="25.9969" rx="7.5" fill="#EDECEA" fill-opacity="0.84" stroke="black" stroke-width="2"/>
<rect x="46.1416" y="14.373" width="39.0217" height="25.9969" rx="7.5" fill="#EDECEA" fill-opacity="0.84" stroke="black" stroke-width="2"/>
<rect x="175.597" y="14.373" width="39.0217" height="25.9969" rx="7.5" fill="#EDECEA" fill-opacity="0.84" stroke="black" stroke-width="2"/>
<rect x="240.076" y="14.373" width="39.0217" height="25.9969" rx="7.5" fill="#EDECEA" fill-opacity="0.84" stroke="black" stroke-width="2"/>
<rect x="304.556" y="14.373" width="39.0217" height="25.9969" rx="7.5" fill="#EDECEA" fill-opacity="0.84" stroke="black" stroke-width="2"/>
<rect x="369.035" y="14.373" width="39.0217" height="25.9969" rx="7.5" fill="#EDECEA" fill-opacity="0.84" stroke="black" stroke-width="2"/>
<rect x="433.514" y="14.373" width="39.0217" height="25.9969" rx="7.5" fill="#EDECEA" fill-opacity="0.84" stroke="black" stroke-width="2"/>
<rect x="497.994" y="14.373" width="39.0217" height="25.9969" rx="7.5" fill="#EDECEA" fill-opacity="0.84" stroke="black" stroke-width="2"/>
<rect x="562.473" y="14.373" width="39.0217" height="25.9969" rx="7.5" fill="#EDECEA" fill-opacity="0.84" stroke="black" stroke-width="2"/>
<rect x="626.953" y="14.373" width="39.0217" height="25.9969" rx="7.5" fill="#EDECEA" fill-opacity="0.84" stroke="black" stroke-width="2"/>
<rect x="691.432" y="14.373" width="39.0217" height="25.9969" rx="7.5" fill="#EDECEA" fill-opacity="0.84" stroke="black" stroke-width="2"/>
<rect x="1273.21" y="14.373" width="39.0217" height="25.9969" rx="7.5" fill="#EDECEA" fill-opacity="0.84" stroke="black" stroke-width="2"/>
<rect x="2178.86" y="14.373" width="39.0217" height="25.9969" rx="7.5" fill="#EDECEA" fill-opacity="0.84" stroke="black" stroke-width="2"/>
<rect x="3343.89" y="14.373" width="39.0217" height="25.9969" rx="7.5" fill="#EDECEA" fill-opacity="0.84" stroke="black" stroke-width="2"/>
<rect x="755.911" y="14.373" width="39.0217" height="25.9969" rx="7.5" fill="#EDECEA" fill-opacity="0.84" stroke="black" stroke-width="2"/>
<rect x="1337.69" y="14.373" width="39.0217" height="25.9969" rx="7.5" fill="#EDECEA" fill-opacity="0.84" stroke="black" stroke-width="2"/>
<rect x="2243.34" y="14.373" width="39.0217" height="25.9969" rx="7.5" fill="#EDECEA" fill-opacity="0.84" stroke="black" stroke-width="2"/>
<rect x="3408.37" y="14.373" width="39.0217" height="25.9969" rx="7.5" fill="#EDECEA" fill-opacity="0.84" stroke="black" stroke-width="2"/>
<rect x="820.391" y="14.373" width="39.0217" height="25.9969" rx="7.5" fill="#EDECEA" fill-opacity="0.84" stroke="black" stroke-width="2"/>
<rect x="1402.17" y="14.373" width="39.0217" height="25.9969" rx="7.5" fill="#EDECEA" fill-opacity="0.84" stroke="black" stroke-width="2"/>
<rect x="2307.82" y="14.373" width="39.0217" height="25.9969" rx="7.5" fill="#EDECEA" fill-opacity="0.84" stroke="black" stroke-width="2"/>
<rect x="3472.85" y="14.373" width="39.0217" height="25.9969" rx="7.5" fill="#EDECEA" fill-opacity="0.84" stroke="black" stroke-width="2"/>
<rect x="884.87" y="14.373" width="39.0217" height="25.9969" rx="7.5" fill="#EDECEA" fill-opacity="0.84" stroke="black" stroke-width="2"/>
<rect x="1466.65" y="14.373" width="39.0217" height="25.9969" rx="7.5" fill="#EDECEA" fill-opacity="0.84" stroke="black" stroke-width="2"/>
<rect x="2372.3" y="14.373" width="39.0217" height="25.9969" rx="7.5" fill="#EDECEA" fill-opacity="0.84" stroke="black" stroke-width="2"/>
<rect x="3537.33" y="14.373" width="39.0217" height="25.9969" rx="7.5" fill="#EDECEA" fill-opacity="0.84" stroke="black" stroke-width="2"/>
<rect x="949.349" y="14.373" width="39.0217" height="25.9969" rx="7.5" fill="#EDECEA" fill-opacity="0.84" stroke="black" stroke-width="2"/>
<rect x="1854.99" y="14.373" width="39.0217" height="25.9969" rx="7.5" fill="#EDECEA" fill-opacity="0.84" stroke="black" stroke-width="2"/>
<rect x="3020.03" y="14.373" width="39.0217" height="25.9969" rx="7.5" fill="#EDECEA" fill-opacity="0.84" stroke="black" stroke-width="2"/>
<rect x="1531.13" y="14.373" width="39.0217" height="25.9969" rx="7.5" fill="#EDECEA" fill-opacity="0.84" stroke="black" stroke-width="2"/>
<rect x="2436.78" y="14.373" width="39.0217" height="25.9969" rx="7.5" fill="#EDECEA" fill-opacity="0.84" stroke="black" stroke-width="2"/>
<rect x="3601.81" y="14.373" width="39.0217" height="25.9969" rx="7.5" fill="#EDECEA" fill-opacity="0.84" stroke="black" stroke-width="2"/>
<rect x="1013.83" y="14.373" width="39.0217" height="25.9969" rx="7.5" fill="#EDECEA" fill-opacity="0.84" stroke="black" stroke-width="2"/>
<rect x="1919.47" y="14.373" width="39.0217" height="25.9969" rx="7.5" fill="#EDECEA" fill-opacity="0.84" stroke="black" stroke-width="2"/>
<rect x="3084.5" y="14.373" width="39.0217" height="25.9969" rx="7.5" fill="#EDECEA" fill-opacity="0.84" stroke="black" stroke-width="2"/>
<rect x="1595.61" y="14.373" width="39.0217" height="25.9969" rx="7.5" fill="#EDECEA" fill-opacity="0.84" stroke="black" stroke-width="2"/>
<rect x="2760.64" y="14.373" width="39.0217" height="25.9969" rx="7.5" fill="#EDECEA" fill-opacity="0.84" stroke="black" stroke-width="2"/>
<rect x="2501.26" y="14.373" width="39.0217" height="25.9969" rx="7.5" fill="#EDECEA" fill-opacity="0.84" stroke="black" stroke-width="2"/>
<rect x="3666.29" y="14.373" width="39.0217" height="25.9969" rx="7.5" fill="#EDECEA" fill-opacity="0.84" stroke="black" stroke-width="2"/>
<rect x="1078.31" y="14.373" width="39.0217" height="25.9969" rx="7.5" fill="#EDECEA" fill-opacity="0.84" stroke="black" stroke-width="2"/>
<rect x="1983.95" y="14.373" width="39.0217" height="25.9969" rx="7.5" fill="#EDECEA" fill-opacity="0.84" stroke="black" stroke-width="2"/>
<rect x="3148.98" y="14.373" width="39.0217" height="25.9969" rx="7.5" fill="#EDECEA" fill-opacity="0.84" stroke="black" stroke-width="2"/>
<rect x="1660.09" y="14.373" width="39.0217" height="25.9969" rx="7.5" fill="#EDECEA" fill-opacity="0.84" stroke="black" stroke-width="2"/>
<rect x="2825.12" y="14.373" width="39.0217" height="25.9969" rx="7.5" fill="#EDECEA" fill-opacity="0.84" stroke="black" stroke-width="2"/>
<rect x="2565.73" y="14.373" width="39.0217" height="25.9969" rx="7.5" fill="#EDECEA" fill-opacity="0.84" stroke="black" stroke-width="2"/>
<rect x="3730.77" y="14.373" width="39.0217" height="25.9969" rx="7.5" fill="#EDECEA" fill-opacity="0.84" stroke="black" stroke-width="2"/>
<rect x="1142.79" y="14.373" width="39.0217" height="25.9969" rx="7.5" fill="#EDECEA" fill-opacity="0.84" stroke="black" stroke-width="2"/>
<rect x="2048.43" y="14.373" width="39.0217" height="25.9969" rx="7.5" fill="#EDECEA" fill-opacity="0.84" stroke="black" stroke-width="2"/>
<rect x="3213.46" y="14.373" width="39.0217" height="25.9969" rx="7.5" fill="#EDECEA" fill-opacity="0.84" stroke="black" stroke-width="2"/>
<rect x="1724.57" y="14.373" width="39.0217" height="25.9969" rx="7.5" fill="#EDECEA" fill-opacity="0.84" stroke="black" stroke-width="2"/>
<rect x="2889.6" y="14.373" width="39.0217" height="25.9969" rx="7.5" fill="#EDECEA" fill-opacity="0.84" stroke="black" stroke-width="2"/>
<rect x="2630.21" y="14.373" width="39.0217" height="25.9969" rx="7.5" fill="#EDECEA" fill-opacity="0.84" stroke="black" stroke-width="2"/>
<rect x="3795.24" y="14.373" width="39.0217" height="25.9969" rx="7.5" fill="#EDECEA" fill-opacity="0.84" stroke="black" stroke-width="2"/>
<rect x="1208.73" y="14.373" width="39.0217" height="25.9969" rx="7.5" fill="#EDECEA" fill-opacity="0.84" stroke="black" stroke-width="2"/>
<rect x="2114.38" y="14.373" width="39.0217" height="25.9969" rx="7.5" fill="#EDECEA" fill-opacity="0.84" stroke="black" stroke-width="2"/>
<rect x="3279.41" y="14.373" width="39.0217" height="25.9969" rx="7.5" fill="#EDECEA" fill-opacity="0.84" stroke="black" stroke-width="2"/>
<rect x="1790.52" y="14.373" width="39.0217" height="25.9969" rx="7.5" fill="#EDECEA" fill-opacity="0.84" stroke="black" stroke-width="2"/>
<rect x="2955.55" y="14.373" width="39.0217" height="25.9969" rx="7.5" fill="#EDECEA" fill-opacity="0.84" stroke="black" stroke-width="2"/>
<rect x="2696.16" y="14.373" width="39.0217" height="25.9969" rx="7.5" fill="#EDECEA" fill-opacity="0.84" stroke="black" stroke-width="2"/>
<rect x="3861.19" y="14.373" width="39.0217" height="25.9969" rx="7.5" fill="#EDECEA" fill-opacity="0.84" stroke="black" stroke-width="2"/>
<rect x="8.93994" y="7.4585" width="39.0217" height="25.9969" rx="7.5" fill="white" stroke="black" stroke-width="2"/>
<rect x="73.916" y="7.4585" width="39.0217" height="25.9969" rx="7.5" fill="white" stroke="black" stroke-width="2"/>
<rect x="138.396" y="7.4585" width="39.0217" height="25.9969" rx="7.5" fill="white" stroke="black" stroke-width="2"/>
<rect x="202.875" y="7.4585" width="39.0217" height="25.9969" rx="7.5" fill="white" stroke="black" stroke-width="2"/>
<rect x="267.354" y="7.4585" width="39.0217" height="25.9969" rx="7.5" fill="white" stroke="black" stroke-width="2"/>
<rect x="331.833" y="7.4585" width="39.0217" height="25.9969" rx="7.5" fill="white" stroke="black" stroke-width="2"/>
<rect x="396.313" y="7.4585" width="39.0217" height="25.9969" rx="7.5" fill="white" stroke="black" stroke-width="2"/>
<rect x="460.792" y="7.4585" width="39.0217" height="25.9969" rx="7.5" fill="white" stroke="black" stroke-width="2"/>
<rect x="525.271" y="7.4585" width="39.0217" height="25.9969" rx="7.5" fill="white" stroke="black" stroke-width="2"/>
<rect x="589.751" y="7.4585" width="39.0217" height="25.9969" rx="7.5" fill="white" stroke="black" stroke-width="2"/>
<rect x="654.23" y="7.4585" width="39.0217" height="25.9969" rx="7.5" fill="white" stroke="black" stroke-width="2"/>
<rect x="1236.01" y="7.4585" width="39.0217" height="25.9969" rx="7.5" fill="white" stroke="black" stroke-width="2"/>
<rect x="2141.66" y="7.4585" width="39.0217" height="25.9969" rx="7.5" fill="white" stroke="black" stroke-width="2"/>
<rect x="3306.69" y="7.4585" width="39.0217" height="25.9969" rx="7.5" fill="white" stroke="black" stroke-width="2"/>
<rect x="718.709" y="7.4585" width="39.0217" height="25.9969" rx="7.5" fill="white" stroke="black" stroke-width="2"/>
<rect x="1300.49" y="7.4585" width="39.0217" height="25.9969" rx="7.5" fill="white" stroke="black" stroke-width="2"/>
<rect x="2206.14" y="7.4585" width="39.0217" height="25.9969" rx="7.5" fill="white" stroke="black" stroke-width="2"/>
<rect x="3371.17" y="7.4585" width="39.0217" height="25.9969" rx="7.5" fill="white" stroke="black" stroke-width="2"/>
<rect x="783.189" y="7.4585" width="39.0217" height="25.9969" rx="7.5" fill="white" stroke="black" stroke-width="2"/>
<rect x="1364.97" y="7.4585" width="39.0217" height="25.9969" rx="7.5" fill="white" stroke="black" stroke-width="2"/>
<rect x="2270.62" y="7.4585" width="39.0217" height="25.9969" rx="7.5" fill="white" stroke="black" stroke-width="2"/>
<rect x="3435.65" y="7.4585" width="39.0217" height="25.9969" rx="7.5" fill="white" stroke="black" stroke-width="2"/>
<rect x="847.668" y="7.4585" width="39.0217" height="25.9969" rx="7.5" fill="white" stroke="black" stroke-width="2"/>
<rect x="1429.45" y="7.4585" width="39.0217" height="25.9969" rx="7.5" fill="white" stroke="black" stroke-width="2"/>
<rect x="2335.1" y="7.4585" width="39.0217" height="25.9969" rx="7.5" fill="white" stroke="black" stroke-width="2"/>
<rect x="3500.13" y="7.4585" width="39.0217" height="25.9969" rx="7.5" fill="white" stroke="black" stroke-width="2"/>
<rect x="912.147" y="7.4585" width="39.0217" height="25.9969" rx="7.5" fill="white" stroke="black" stroke-width="2"/>
<rect x="1817.79" y="7.4585" width="39.0217" height="25.9969" rx="7.5" fill="white" stroke="black" stroke-width="2"/>
<rect x="2982.82" y="7.4585" width="39.0217" height="25.9969" rx="7.5" fill="white" stroke="black" stroke-width="2"/>
<rect x="1493.93" y="7.4585" width="39.0217" height="25.9969" rx="7.5" fill="white" stroke="black" stroke-width="2"/>
<rect x="2399.57" y="7.4585" width="39.0217" height="25.9969" rx="7.5" fill="white" stroke="black" stroke-width="2"/>
<rect x="3564.61" y="7.4585" width="39.0217" height="25.9969" rx="7.5" fill="white" stroke="black" stroke-width="2"/>
<rect x="976.627" y="7.4585" width="39.0217" height="25.9969" rx="7.5" fill="white" stroke="black" stroke-width="2"/>
<rect x="1882.27" y="7.4585" width="39.0217" height="25.9969" rx="7.5" fill="white" stroke="black" stroke-width="2"/>
<rect x="3047.3" y="7.4585" width="39.0217" height="25.9969" rx="7.5" fill="white" stroke="black" stroke-width="2"/>
<rect x="1558.41" y="7.4585" width="39.0217" height="25.9969" rx="7.5" fill="white" stroke="black" stroke-width="2"/>
<rect x="2723.44" y="7.4585" width="39.0217" height="25.9969" rx="7.5" fill="white" stroke="black" stroke-width="2"/>
<rect x="2464.05" y="7.4585" width="39.0217" height="25.9969" rx="7.5" fill="white" stroke="black" stroke-width="2"/>
<rect x="3629.08" y="7.4585" width="39.0217" height="25.9969" rx="7.5" fill="white" stroke="black" stroke-width="2"/>
<rect x="1041.11" y="7.4585" width="39.0217" height="25.9969" rx="7.5" fill="white" stroke="black" stroke-width="2"/>
<rect x="1946.75" y="7.4585" width="39.0217" height="25.9969" rx="7.5" fill="white" stroke="black" stroke-width="2"/>
<rect x="3111.78" y="7.4585" width="39.0217" height="25.9969" rx="7.5" fill="white" stroke="black" stroke-width="2"/>
<rect x="1622.89" y="7.4585" width="39.0217" height="25.9969" rx="7.5" fill="white" stroke="black" stroke-width="2"/>
<rect x="2787.92" y="7.4585" width="39.0217" height="25.9969" rx="7.5" fill="white" stroke="black" stroke-width="2"/>
<rect x="2528.53" y="7.4585" width="39.0217" height="25.9969" rx="7.5" fill="white" stroke="black" stroke-width="2"/>
<rect x="3693.56" y="7.4585" width="39.0217" height="25.9969" rx="7.5" fill="white" stroke="black" stroke-width="2"/>
<rect x="1105.59" y="7.4585" width="39.0217" height="25.9969" rx="7.5" fill="white" stroke="black" stroke-width="2"/>
<rect x="2011.23" y="7.4585" width="39.0217" height="25.9969" rx="7.5" fill="white" stroke="black" stroke-width="2"/>
<rect x="3176.26" y="7.4585" width="39.0217" height="25.9969" rx="7.5" fill="white" stroke="black" stroke-width="2"/>
<rect x="1687.37" y="7.4585" width="39.0217" height="25.9969" rx="7.5" fill="white" stroke="black" stroke-width="2"/>
<rect x="2852.4" y="7.4585" width="39.0217" height="25.9969" rx="7.5" fill="white" stroke="black" stroke-width="2"/>
<rect x="2593.01" y="7.4585" width="39.0217" height="25.9969" rx="7.5" fill="white" stroke="black" stroke-width="2"/>
<rect x="3758.04" y="7.4585" width="39.0217" height="25.9969" rx="7.5" fill="white" stroke="black" stroke-width="2"/>
<rect x="1170.06" y="7.4585" width="39.0217" height="25.9969" rx="7.5" fill="white" stroke="black" stroke-width="2"/>
<rect x="2075.71" y="7.4585" width="39.0217" height="25.9969" rx="7.5" fill="white" stroke="black" stroke-width="2"/>
<rect x="3240.74" y="7.4585" width="39.0217" height="25.9969" rx="7.5" fill="white" stroke="black" stroke-width="2"/>
<rect x="1751.85" y="7.4585" width="39.0217" height="25.9969" rx="7.5" fill="white" stroke="black" stroke-width="2"/>
<rect x="2916.88" y="7.4585" width="39.0217" height="25.9969" rx="7.5" fill="white" stroke="black" stroke-width="2"/>
<rect x="2657.49" y="7.4585" width="39.0217" height="25.9969" rx="7.5" fill="white" stroke="black" stroke-width="2"/>
<rect x="3822.52" y="7.4585" width="39.0217" height="25.9969" rx="7.5" fill="white" stroke="black" stroke-width="2"/>
<rect x="3888.47" y="7.4585" width="39.0217" height="25.9969" rx="7.5" fill="white" stroke="black" stroke-width="2"/>
<rect x="106.156" y="1.29688" width="39.0217" height="25.9969" rx="7.5" fill="white" stroke="black" stroke-width="2"/>
<rect x="41.1797" y="1.29688" width="39.0217" height="25.9969" rx="7.5" fill="white" stroke="black" stroke-width="2"/>
<rect x="170.635" y="1.29688" width="39.0217" height="25.9969" rx="7.5" fill="white" stroke="black" stroke-width="2"/>
<rect x="235.115" y="1.29688" width="39.0217" height="25.9969" rx="7.5" fill="white" stroke="black" stroke-width="2"/>
<rect x="299.594" y="1.29688" width="39.0217" height="25.9969" rx="7.5" fill="white" stroke="black" stroke-width="2"/>
<rect x="364.073" y="1.29688" width="39.0217" height="25.9969" rx="7.5" fill="white" stroke="black" stroke-width="2"/>
<rect x="428.552" y="1.29688" width="39.0217" height="25.9969" rx="7.5" fill="white" stroke="black" stroke-width="2"/>
<rect x="493.032" y="1.29688" width="39.0217" height="25.9969" rx="7.5" fill="white" stroke="black" stroke-width="2"/>
<rect x="557.511" y="1.29688" width="39.0217" height="25.9969" rx="7.5" fill="white" stroke="black" stroke-width="2"/>
<rect x="621.991" y="1.29688" width="39.0217" height="25.9969" rx="7.5" fill="white" stroke="black" stroke-width="2"/>
<rect x="686.47" y="1.29688" width="39.0217" height="25.9969" rx="7.5" fill="white" stroke="black" stroke-width="2"/>
<rect x="1268.25" y="1.29688" width="39.0217" height="25.9969" rx="7.5" fill="white" stroke="black" stroke-width="2"/>
<rect x="2173.9" y="1.29688" width="39.0217" height="25.9969" rx="7.5" fill="white" stroke="black" stroke-width="2"/>
<rect x="3338.93" y="1.29688" width="39.0217" height="25.9969" rx="7.5" fill="white" stroke="black" stroke-width="2"/>
<rect x="750.949" y="1.29688" width="39.0217" height="25.9969" rx="7.5" fill="white" stroke="black" stroke-width="2"/>
<rect x="1332.73" y="1.29688" width="39.0217" height="25.9969" rx="7.5" fill="white" stroke="black" stroke-width="2"/>
<rect x="2238.38" y="1.29688" width="39.0217" height="25.9969" rx="7.5" fill="white" stroke="black" stroke-width="2"/>
<rect x="3403.41" y="1.29688" width="39.0217" height="25.9969" rx="7.5" fill="white" stroke="black" stroke-width="2"/>
<rect x="815.429" y="1.29688" width="39.0217" height="25.9969" rx="7.5" fill="white" stroke="black" stroke-width="2"/>
<rect x="1397.21" y="1.29688" width="39.0217" height="25.9969" rx="7.5" fill="white" stroke="black" stroke-width="2"/>
<rect x="2302.86" y="1.29688" width="39.0217" height="25.9969" rx="7.5" fill="white" stroke="black" stroke-width="2"/>
<rect x="3467.89" y="1.29688" width="39.0217" height="25.9969" rx="7.5" fill="white" stroke="black" stroke-width="2"/>
<rect x="879.908" y="1.29688" width="39.0217" height="25.9969" rx="7.5" fill="white" stroke="black" stroke-width="2"/>
<rect x="1461.69" y="1.29688" width="39.0217" height="25.9969" rx="7.5" fill="white" stroke="black" stroke-width="2"/>
<rect x="2367.33" y="1.29688" width="39.0217" height="25.9969" rx="7.5" fill="white" stroke="black" stroke-width="2"/>
<rect x="3532.37" y="1.29688" width="39.0217" height="25.9969" rx="7.5" fill="white" stroke="black" stroke-width="2"/>
<rect x="944.387" y="1.29688" width="39.0217" height="25.9969" rx="7.5" fill="white" stroke="black" stroke-width="2"/>
<rect x="1850.03" y="1.29688" width="39.0217" height="25.9969" rx="7.5" fill="white" stroke="black" stroke-width="2"/>
<rect x="3015.06" y="1.29688" width="39.0217" height="25.9969" rx="7.5" fill="white" stroke="black" stroke-width="2"/>
<rect x="1526.17" y="1.29688" width="39.0217" height="25.9969" rx="7.5" fill="white" stroke="black" stroke-width="2"/>
<rect x="2431.81" y="1.29688" width="39.0217" height="25.9969" rx="7.5" fill="white" stroke="black" stroke-width="2"/>
<rect x="3596.85" y="1.29688" width="39.0217" height="25.9969" rx="7.5" fill="white" stroke="black" stroke-width="2"/>
<rect x="1008.87" y="1.29688" width="39.0217" height="25.9969" rx="7.5" fill="white" stroke="black" stroke-width="2"/>
<rect x="1914.51" y="1.29688" width="39.0217" height="25.9969" rx="7.5" fill="white" stroke="black" stroke-width="2"/>
<rect x="3079.54" y="1.29688" width="39.0217" height="25.9969" rx="7.5" fill="white" stroke="black" stroke-width="2"/>
<rect x="1590.65" y="1.29688" width="39.0217" height="25.9969" rx="7.5" fill="white" stroke="black" stroke-width="2"/>
<rect x="2755.68" y="1.29688" width="39.0217" height="25.9969" rx="7.5" fill="white" stroke="black" stroke-width="2"/>
<rect x="2496.29" y="1.29688" width="39.0217" height="25.9969" rx="7.5" fill="white" stroke="black" stroke-width="2"/>
<rect x="3661.32" y="1.29688" width="39.0217" height="25.9969" rx="7.5" fill="white" stroke="black" stroke-width="2"/>
<rect x="1073.35" y="1.29688" width="39.0217" height="25.9969" rx="7.5" fill="white" stroke="black" stroke-width="2"/>
<rect x="1978.99" y="1.29688" width="39.0217" height="25.9969" rx="7.5" fill="white" stroke="black" stroke-width="2"/>
<rect x="3144.02" y="1.29688" width="39.0217" height="25.9969" rx="7.5" fill="white" stroke="black" stroke-width="2"/>
<rect x="1655.13" y="1.29688" width="39.0217" height="25.9969" rx="7.5" fill="white" stroke="black" stroke-width="2"/>
<rect x="2820.16" y="1.29688" width="39.0217" height="25.9969" rx="7.5" fill="white" stroke="black" stroke-width="2"/>
<rect x="2560.77" y="1.29688" width="39.0217" height="25.9969" rx="7.5" fill="white" stroke="black" stroke-width="2"/>
<rect x="3725.8" y="1.29688" width="39.0217" height="25.9969" rx="7.5" fill="white" stroke="black" stroke-width="2"/>
<rect x="1137.83" y="1.29688" width="39.0217" height="25.9969" rx="7.5" fill="white" stroke="black" stroke-width="2"/>
<rect x="2043.47" y="1.29688" width="39.0217" height="25.9969" rx="7.5" fill="white" stroke="black" stroke-width="2"/>
<rect x="3208.5" y="1.29688" width="39.0217" height="25.9969" rx="7.5" fill="white" stroke="black" stroke-width="2"/>
<rect x="1719.61" y="1.29688" width="39.0217" height="25.9969" rx="7.5" fill="white" stroke="black" stroke-width="2"/>
<rect x="2884.64" y="1.29688" width="39.0217" height="25.9969" rx="7.5" fill="white" stroke="black" stroke-width="2"/>
<rect x="2625.25" y="1.29688" width="39.0217" height="25.9969" rx="7.5" fill="white" stroke="black" stroke-width="2"/>
<rect x="3790.28" y="1.29688" width="39.0217" height="25.9969" rx="7.5" fill="white" stroke="black" stroke-width="2"/>
<rect x="1203.77" y="1.29688" width="39.0217" height="25.9969" rx="7.5" fill="white" stroke="black" stroke-width="2"/>
<rect x="2109.42" y="1.29688" width="39.0217" height="25.9969" rx="7.5" fill="white" stroke="black" stroke-width="2"/>
<rect x="3274.45" y="1.29688" width="39.0217" height="25.9969" rx="7.5" fill="white" stroke="black" stroke-width="2"/>
<rect x="1785.55" y="1.29688" width="39.0217" height="25.9969" rx="7.5" fill="white" stroke="black" stroke-width="2"/>
<rect x="2950.58" y="1.29688" width="39.0217" height="25.9969" rx="7.5" fill="white" stroke="black" stroke-width="2"/>
<rect x="2691.2" y="1.29688" width="39.0217" height="25.9969" rx="7.5" fill="white" stroke="black" stroke-width="2"/>
<rect x="3856.23" y="1.29688" width="39.0217" height="25.9969" rx="7.5" fill="white" stroke="black" stroke-width="2"/>
</svg>
