<svg width="19" height="18" viewBox="0 0 19 18" fill="none" xmlns="http://www.w3.org/2000/svg">
<path d="M7.09143 13.2427C5.27476 13.2427 3.73743 12.6133 2.47943 11.3547C1.22143 10.096 0.592098 8.55868 0.591431 6.74268C0.590765 4.92668 1.2201 3.38934 2.47943 2.13068C3.73876 0.872009 5.2761 0.242676 7.09143 0.242676C8.90676 0.242676 10.4444 0.872009 11.7044 2.13068C12.9644 3.38934 13.5934 4.92668 13.5914 6.74268C13.5914 7.47601 13.4748 8.16768 13.2414 8.81768C13.0081 9.46768 12.6914 10.0427 12.2914 10.5427L17.8914 16.1427C18.0748 16.326 18.1664 16.5593 18.1664 16.8427C18.1664 17.126 18.0748 17.3593 17.8914 17.5427C17.7081 17.726 17.4748 17.8177 17.1914 17.8177C16.9081 17.8177 16.6748 17.726 16.4914 17.5427L10.8914 11.9427C10.3914 12.3427 9.81643 12.6593 9.16643 12.8927C8.51643 13.126 7.82476 13.2427 7.09143 13.2427ZM7.09143 11.2427C8.34143 11.2427 9.4041 10.8053 10.2794 9.93068C11.1548 9.05601 11.5921 7.99334 11.5914 6.74268C11.5908 5.49201 11.1534 4.42968 10.2794 3.55568C9.40543 2.68168 8.34276 2.24401 7.09143 2.24268C5.8401 2.24134 4.77776 2.67901 3.90443 3.55568C3.0311 4.43234 2.59343 5.49468 2.59143 6.74268C2.58943 7.99068 3.0271 9.05334 3.90443 9.93068C4.78176 10.808 5.8441 11.2453 7.09143 11.2427Z" fill="black"/>
</svg>
