<svg width="175" height="201" viewBox="0 0 175 201" fill="none" xmlns="http://www.w3.org/2000/svg">
<path d="M133.258 168.683L3.53665 199.002C2.30613 199.184 1.30859 198.157 1.30859 196.708V34.7364C1.30859 33.2874 2.30613 31.9651 3.53665 31.783L133.258 1.46477C134.488 1.28265 135.486 2.30968 135.486 3.75869V165.73C135.486 167.179 134.488 168.501 133.258 168.683Z" fill="#E51131"/>
<path d="M3.2527 200.258C2.52745 200.258 1.83948 200.003 1.27911 199.519C0.512798 198.858 0.0737305 197.833 0.0737305 196.708V34.7365C0.0737305 32.6893 1.48569 30.8721 3.29882 30.5707L133.026 0.251406L133.077 0.243825C133.969 0.110841 134.834 0.361331 135.515 0.947596C136.281 1.60872 136.72 2.63342 136.72 3.75889V165.73C136.72 167.778 135.308 169.595 133.495 169.896L3.76758 200.215L3.71704 200.223C3.561 200.246 3.40622 200.258 3.2527 200.258ZM133.477 2.68144L3.76758 32.9967L3.71704 33.0042C3.16173 33.0864 2.54261 33.8182 2.54261 34.7365V196.708C2.54261 197.109 2.67339 197.461 2.89197 197.65C3.01453 197.756 3.15604 197.801 3.31714 197.785L133.026 167.47L133.077 167.462C133.632 167.38 134.251 166.622 134.251 165.73V3.75889C134.251 3.35804 134.121 3.00584 133.902 2.81695C133.778 2.7105 133.639 2.66596 133.477 2.68144Z" fill="white"/>
<path d="M160.824 178.497L4.00213 199.167C2.51453 199.258 1.30859 198.157 1.30859 196.708V34.7363C1.30859 33.2873 2.51453 32.0392 4.00213 31.9486L160.824 11.2782C162.311 11.1876 163.517 12.2888 163.517 13.7378V175.709C163.517 177.158 162.311 178.406 160.824 178.497Z" fill="#E51131"/>
<path d="M3.82709 200.481C2.8245 200.481 1.89077 200.117 1.17373 199.443C0.416895 198.731 -6.10352e-05 197.759 -6.10352e-05 196.708V34.7362C-6.10352e-05 32.6271 1.7322 30.8026 3.87257 30.646L160.699 9.97475L160.744 9.9719C161.847 9.9062 162.875 10.271 163.652 11.0029C164.409 11.7152 164.826 12.6865 164.826 13.7378V175.709C164.826 177.818 163.093 179.643 160.954 179.8L4.1278 200.47L4.08168 200.473C3.9964 200.479 3.91111 200.481 3.82709 200.481ZM160.942 12.5823L4.1278 33.2519L4.08168 33.2548C3.28757 33.3031 2.61665 33.9816 2.61665 34.7362V196.708C2.61665 197.03 2.74111 197.324 2.96727 197.537C3.20481 197.76 3.5409 197.873 3.88331 197.863L160.698 177.194L160.744 177.191C161.538 177.142 162.209 176.464 162.209 175.709V13.7378C162.209 13.3249 162.018 13.059 161.858 12.9086C161.621 12.685 161.304 12.5693 160.942 12.5823Z" fill="white"/>
<path d="M170.287 189.04L4.00213 199.167C2.51453 199.258 1.30859 198.157 1.30859 196.708V34.7365C1.30859 33.2875 2.51453 32.0394 4.00213 31.9488L170.287 21.8216C171.774 21.731 172.98 22.8322 172.98 24.2812V186.253C172.98 187.702 171.774 188.95 170.287 189.04Z" fill="#E51131"/>
<path d="M3.82709 200.482C2.8245 200.482 1.89077 200.118 1.17373 199.443C0.416895 198.731 -6.10352e-05 197.76 -6.10352e-05 196.708V34.7366C-6.10352e-05 32.611 1.75937 30.7745 3.92248 30.6428L170.207 20.5155C171.309 20.4514 172.338 20.815 173.115 21.5466C173.872 22.2589 174.289 23.2302 174.289 24.2814V186.253C174.289 188.378 172.529 190.215 170.366 190.347L4.08168 200.474C3.9964 200.479 3.91111 200.482 3.82709 200.482ZM170.457 23.125C170.426 23.125 170.396 23.1259 170.366 23.1278L4.08168 33.2551C3.28757 33.3034 2.61665 33.9819 2.61665 34.7366V196.708C2.61665 197.03 2.74111 197.325 2.96727 197.537C3.21303 197.768 3.5548 197.884 3.92248 197.861L170.207 187.734C171.001 187.686 171.672 187.008 171.672 186.253V24.2814C171.672 23.8686 171.481 23.6026 171.321 23.4522C171.096 23.2396 170.791 23.125 170.457 23.125Z" fill="white"/>
<path d="M25.4759 83.0135C24.3371 83.0979 23.8545 82.631 23.898 81.4858L25.0233 51.7971C25.0668 50.6519 25.5876 50.11 26.7264 50.0256L47.8666 48.4555C49.006 48.3709 49.4877 48.838 49.4442 49.9838L49.241 55.3443C49.1978 56.4895 48.6776 57.0306 47.5382 57.1152L34.9634 58.0489L34.8296 61.5771L43.7142 60.9168C44.853 60.8323 45.335 61.2993 45.2915 62.4445L45.1057 67.347C45.0621 68.4922 44.5423 69.0333 43.4035 69.1177L34.5189 69.778L34.3694 73.718L46.9442 72.7843C48.0836 72.6998 48.5656 73.1661 48.5221 74.312L48.3189 79.6725C48.2754 80.8177 47.7555 81.3588 46.6161 81.4433L25.4759 83.0135Z" fill="#EBF5EC"/>
<path d="M55.2729 80.8007C54.1334 80.8852 53.6514 80.4182 53.695 79.273L54.8202 49.5843C54.8637 48.4391 55.3839 47.898 56.5234 47.8128L71.6944 46.6864C78.5291 46.1789 80.5525 49.1354 80.3802 53.6712L80.3007 55.7788C80.2036 58.3439 79.4963 60.2245 77.5512 61.1912C80.8629 61.311 82.9582 63.5765 82.8124 67.4251L82.444 77.138C82.4004 78.2832 81.8799 78.8244 80.7411 78.9095L73.6793 79.4337C72.5405 79.5182 72.0584 79.0512 72.102 77.906L72.3676 70.8965C72.42 69.5216 71.9865 68.9601 70.7114 69.0548L64.3319 69.5282L63.9915 78.5083C63.948 79.6535 63.4281 80.1952 62.2893 80.2797L55.2729 80.8007ZM64.6445 61.2816L68.0616 61.0275C69.6565 60.9095 70.1013 59.963 70.1486 58.7258L70.2073 57.1676C70.2546 55.931 69.8793 55.0451 68.284 55.1632L64.8669 55.4173L64.6445 61.2816Z" fill="#EBF5EC"/>
<path d="M74.5993 87.2903C75.7135 87.1082 76.2283 87.5159 76.2851 88.6252L77.1633 105.843C77.2605 107.75 77.333 109.171 76.6416 111.477L74.721 117.875C74.4542 118.813 73.9557 119.611 73.0195 119.764L67.0917 120.732C66.1112 120.892 65.2888 120.623 64.9737 119.735L62.5547 112.837C62.3469 112.289 62.0708 112.155 61.714 112.214L61.3131 112.279C60.9563 112.337 60.6976 112.559 60.5491 113.164L58.8232 120.739C58.6008 121.671 57.9547 122.223 57.0188 122.376L51.1358 123.337C50.155 123.497 49.4528 122.941 49.0932 122.06L46.5525 116.299C45.6392 114.256 45.567 112.836 45.4695 110.928L44.596 93.7997C44.5395 92.6904 45.0048 92.1226 46.119 91.9404L52.9828 90.8194C54.097 90.6379 54.6121 91.0455 54.6686 92.1549L55.5014 108.485L57.8014 102.471C58.2396 101.371 58.9349 100.899 60.0935 100.71L61.9658 100.404C63.1245 100.215 63.8554 100.454 64.398 101.394L67.268 106.564L66.4352 90.2336C66.3787 89.1243 66.7996 88.5634 67.9586 88.3743L74.5993 87.2903Z" fill="black"/>
<path d="M91.0687 116.817L84.5167 117.886C83.4025 118.068 82.887 117.661 82.8308 116.551L82.2334 104.836C82.1425 103.061 82.5646 100.756 83.6094 97.4524L86.9728 86.7464C87.2775 85.6678 87.9684 85.1075 89.1716 84.9109L101.161 82.9533C102.32 82.7636 103.056 83.0915 103.464 84.0532L107.856 93.4932C109.217 96.4034 109.865 98.5341 109.956 100.309L110.553 112.024C110.61 113.134 110.145 113.702 109.03 113.884L102.3 114.983C101.097 115.179 100.537 114.778 100.481 113.669L100.164 107.457L92.275 108.745L92.5918 114.957C92.6486 116.067 92.1829 116.634 91.0687 116.817ZM92.3091 100.596L99.306 99.4535L96.8675 93.0506C96.6176 92.5544 96.3388 92.376 95.9817 92.4345L94.8681 92.6159C94.511 92.6744 94.2549 92.9407 94.0593 93.5092L92.3091 100.596Z" fill="black"/>
<path d="M116.918 112.596C115.804 112.778 115.288 112.37 115.232 111.261L114.967 106.069C114.911 104.959 115.376 104.391 116.49 104.209L128.48 102.252C129.237 102.128 129.609 101.486 129.573 100.775C129.521 99.7547 129.099 99.4211 128.337 99.4563L121.604 99.6163C117.383 99.6783 114.574 98.3479 114.32 93.378L114.082 88.7184C113.824 83.6599 117.116 80.3484 122.91 79.4019L135.389 77.3645C136.504 77.1824 137.019 77.5906 137.075 78.7L137.345 83.9808C137.401 85.0895 136.936 85.658 135.822 85.8401L125.437 87.5359C124.679 87.6596 124.261 88.2645 124.302 89.0635C124.342 89.8625 124.815 90.3223 125.577 90.2871L132.264 90.09C136.485 90.0274 139.338 91.351 139.592 96.3215L139.83 100.98C140.088 106.039 136.752 109.357 131.002 110.296L116.918 112.596Z" fill="black"/>
<path d="M29.672 162.906C28.588 162.986 28.1297 162.542 28.171 161.452L29.242 133.201C29.2833 132.111 29.7776 131.596 30.8616 131.516L50.9784 130.022C52.0616 129.941 52.5206 130.386 52.4793 131.476L52.2859 136.577C52.2446 137.666 51.7493 138.182 50.6661 138.262L38.7001 139.15L38.5729 142.507L47.0272 141.879C48.1112 141.799 48.5692 142.243 48.5279 143.333L48.3512 147.998C48.3099 149.088 47.8153 149.602 46.7313 149.683L38.277 150.311L38.1351 154.061L50.1011 153.172C51.1844 153.092 51.643 153.536 51.6017 154.626L51.4083 159.727C51.367 160.816 50.8721 161.332 49.7888 161.412L29.672 162.906Z" fill="#EBF5EC"/>
<path d="M58.0229 160.8C56.9396 160.88 56.4806 160.436 56.5219 159.346L57.5929 131.095C57.6342 130.005 58.1292 129.49 59.2124 129.41L79.3292 127.915C80.4132 127.835 80.8718 128.28 80.8302 129.37L80.6371 134.471C80.5955 135.56 80.1009 136.075 79.0169 136.156L67.051 137.044L66.9238 140.401L75.3784 139.773C76.4624 139.693 76.9204 140.137 76.8788 141.227L76.7021 145.892C76.6611 146.982 76.1665 147.496 75.0825 147.577L66.6279 148.205L66.486 151.955L78.4523 151.066C79.5362 150.985 79.9942 151.43 79.9526 152.52L79.7595 157.621C79.7179 158.71 79.2239 159.225 78.14 159.306L58.0229 160.8Z" fill="#EBF5EC"/>
<path d="M86.3748 158.694C85.2909 158.775 84.8316 158.331 84.8732 157.241L85.9439 128.99C85.9855 127.9 86.4801 127.385 87.5641 127.305L92.0726 126.97C93.2 126.886 93.8821 127.139 94.5862 127.957L102.63 137.011L102.982 127.725C103.024 126.635 103.519 126.12 104.603 126.039L111.106 125.556C112.189 125.476 112.649 125.92 112.607 127.01L111.536 155.261C111.495 156.351 110.999 156.866 109.916 156.946L103.413 157.429C102.329 157.509 101.871 157.065 101.912 155.976L102.115 150.613L95.043 142.139L94.4978 156.526C94.4562 157.616 93.9616 158.131 92.8776 158.211L86.3748 158.694Z" fill="#EBF5EC"/>
<path d="M118.237 156.328C117.153 156.408 116.695 155.964 116.736 154.875L116.929 149.774C116.97 148.684 117.465 148.169 118.55 148.088L130.212 147.222C130.949 147.168 131.36 146.572 131.386 145.874C131.424 144.872 131.05 144.508 130.316 144.475L123.847 144.043C119.795 143.735 117.216 142.188 117.402 137.305L117.575 132.727C117.763 127.757 121.205 124.806 126.841 124.387L138.979 123.486C140.063 123.406 140.522 123.849 140.48 124.939L140.284 130.127C140.242 131.217 139.747 131.733 138.663 131.813L128.562 132.563C127.825 132.618 127.372 133.174 127.342 133.958C127.312 134.742 127.726 135.234 128.46 135.266L134.887 135.658C138.939 135.966 141.56 137.51 141.376 142.393L141.202 146.971C141.013 151.941 137.53 154.895 131.937 155.31L118.237 156.328Z" fill="#EBF5EC"/>
<path d="M110.254 178.577C109.157 178.797 108.633 178.416 108.536 177.329L107.751 168.501C107.65 167.37 108.094 166.838 109.19 166.618L118.051 164.839C119.148 164.619 119.669 164.957 119.769 166.088L120.555 174.916C120.652 176.003 120.212 176.578 119.115 176.798L110.254 178.577Z" fill="black"/>
<path d="M127.099 175.195C126.002 175.416 125.477 175.034 125.381 173.946L124.595 165.119C124.495 163.988 124.939 163.456 126.035 163.235L134.896 161.457C135.993 161.236 136.514 161.575 136.614 162.706L137.4 171.534C137.496 172.621 137.057 173.196 135.959 173.417L127.099 175.195Z" fill="black"/>
<path d="M143.944 171.814C142.847 172.034 142.322 171.652 142.225 170.565L141.44 161.738C141.339 160.607 141.783 160.075 142.88 159.855L151.741 158.076C152.837 157.856 153.358 158.194 153.459 159.325L154.244 168.153C154.341 169.24 153.901 169.815 152.805 170.035L143.944 171.814Z" fill="black"/>
</svg>
